SplineFontDB: 3.0
FontName: MakabiYG
FullName: Makabi YG
FamilyName: Makabi YG
Weight: Demi-Bold
Copyright: Copyright 2009 by Yoram Gnat (yoram-gnat@homeil.com). Distributed under the terms of GNU GPL version2 (http://www.gnu.org/licenses/gpl.html).\n\nAs a special exception, if you create a document which uses this font, and embed this font or unaltered portions of this font into the document, this font does not by itself cause the resulting document to be covered by the GNU General Public License. This exception does not however invalidate any other reasons why the document might be covered by the GNU General Public License. If you modify this font, you may extend this exception to your version of the font, but you are not obligated to do so. If you do not wish to do so, delete this exception statement from your version. \n\n \n\n
Version: 1.03
ItalicAngle: 0
UnderlinePosition: -192
UnderlineWidth: 22
Ascent: 1638
Descent: 410
LayerCount: 2
Layer: 0 0 "Back"  1
Layer: 1 0 "Fore"  0
XUID: [1021 983 1423252604 2364301]
FSType: 0
OS2Version: 0
OS2_WeightWidthSlopeOnly: 0
OS2_UseTypoMetrics: 1
CreationTime: 1198493378
ModificationTime: 1269714748
PfmFamily: 65
TTFWeight: 600
TTFWidth: 5
LineGap: 184
VLineGap: 0
Panose: 0 0 0 0 0 0 0 0 0 0
OS2TypoAscent: 0
OS2TypoAOffset: 1
OS2TypoDescent: 0
OS2TypoDOffset: 1
OS2TypoLinegap: 184
OS2WinAscent: 0
OS2WinAOffset: 1
OS2WinDescent: 50
OS2WinDOffset: 1
HheadAscent: 0
HheadAOffset: 1
HheadDescent: 0
HheadDOffset: 1
OS2SubXSize: 1463
OS2SubYSize: 1358
OS2SubXOff: 0
OS2SubYOff: 299
OS2SupXSize: 1463
OS2SupYSize: 1358
OS2SupXOff: 0
OS2SupYOff: 947
OS2StrikeYSize: 104
OS2StrikeYPos: 542
OS2Vendor: 'YG  '
OS2CodePages: 00000021.00000000
OS2UnicodeRanges: 80000841.40000000.00000000.00000000
Lookup: 4 1 0 "'ccmp' Hebrew HatafMeteg"  {"'ccmp' Hebrew HatafMeteg subtable"  } ['ccmp' ('hebr' <'dflt' > ) ]

StartChar: zero
Encoding: 48 48 2
Width: 994
VWidth: 2613
Flags: W
HStem: 1243 252<406.5 664.5>
VStem: 77 220<474.085 815.722> 693 208<478.5 995>
LayerCount: 2
Fore
SplineSet
356 1207 m 1
 350 1199 337 1195 324 1195 c 0
 305 1195 285 1204 285 1230 c 0
 285 1244 291 1264 308 1289 c 1
 320 1309 l 2
 395 1438 442 1495 570 1495 c 0
 759 1495 901 1145 901 845 c 0
 901 481 627 0 388 0 c 0
 239 0 107 264 77 538 c 1
 77 564 l 2
 77 859 234 1031 316 1110 c 1
 328 1121 337 1126 344 1126 c 0
 353 1126 357 1115 357 1102 c 0
 357 1086 353 1067 347 1054 c 1
 310 939 297 888 297 771 c 2
 297 755 l 2
 297 495 401 251 537 251 c 2
 547 251 l 2
 642 251 693 436 693 521 c 0
 693 790 557 1243 419 1243 c 0
 394 1243 356 1207 356 1207 c 1
EndSplineSet
Validated: 1
EndChar

StartChar: one
Encoding: 49 49 3
Width: 546
VWidth: 2611
Flags: W
HStem: 1157 337<141.5 394.5>
VStem: 203 224<116.357 1148.06>
LayerCount: 2
Fore
SplineSet
60 1169 m 0
 60 1216 291 1494 364 1494 c 0
 425 1494 427 1427 427 1320 c 2
 427 248 l 2
 427 127 304 0 245 0 c 0
 229 0 203 11 203 32 c 2
 203 803 l 2
 203 1001 175 1157 147 1157 c 0
 136 1157 132 1137 100 1137 c 0
 79 1137 60 1148 60 1169 c 0
EndSplineSet
Validated: 1
EndChar

StartChar: two
Encoding: 50 50 4
Width: 802
VWidth: 2608
Flags: W
HStem: 36 361<253.548 572.801> 1191 320<275.306 499>
VStem: 445 217<845.107 1119.33>
LayerCount: 2
Fore
SplineSet
282 1191 m 0
 191 1191 167 1120 139 1120 c 0
 111 1120 84 1166 84 1212 c 0
 84 1225 86 1240 92 1252 c 2
 102 1274 l 1
 134 1353 276 1511 401 1511 c 0
 597 1511 662 1277 662 1106 c 2
 662 1098 l 2
 662 928 625 840 554 707 c 1
 489 595 399 461 348 362 c 1
 421 387 476 397 525 397 c 0
 586 397 638 382 703 366 c 1
 720 361 727 344 727 321 c 0
 727 225 610 16 525 16 c 1
 491 25 350 36 280 36 c 0
 192 36 139 21 104 10 c 1
 59 10 32 33 32 63 c 0
 32 75 36 87 45 100 c 1
 56 121 l 1
 152 304 445 520 445 861 c 2
 445 887 l 2
 445 1137 363 1191 282 1191 c 0
EndSplineSet
Validated: 1
EndChar

StartChar: three
Encoding: 51 51 5
Width: 730
VWidth: 2621
Flags: W
HStem: 1248 257<172 431>
VStem: 147 299<720.5 906> 346 100<907.641 954.047> 415 234<322.828 588.038>
LayerCount: 2
Fore
SplineSet
592 1228 m 0xa0
 592 1022 446 930 446 882 c 0xc0
 446 866 468 866 477 861 c 1
 586 824 649 711 649 542 c 0
 649 196 386 86 237 -39 c 0
 220 -54 205 -59 193 -59 c 0
 177 -59 168 -49 168 -34 c 0
 168 -16 180 8 210 31 c 1
 302 113 415 218 415 369 c 2
 415 394 l 2x90
 415 601 322 669 205 691 c 1
 166 691 147 709 147 732 c 0xc0
 147 820 318 807 346 1044 c 1
 346 1055 l 2
 346 1156 274 1248 199 1248 c 0
 145 1248 131 1203 101 1203 c 0
 87 1203 80 1215 80 1234 c 0
 80 1253 89 1281 109 1307 c 1
 161 1372 261 1505 371 1505 c 3
 491 1505 592 1394 592 1228 c 0xa0
EndSplineSet
Validated: 1
EndChar

StartChar: four
Encoding: 52 52 6
Width: 943
VWidth: 2613
Flags: W
HStem: 416 258<319.194 478>
VStem: 72 233<494 912> 478 230<79.0527 416 719 1059.78>
LayerCount: 2
Fore
SplineSet
524 1334 m 0
 414 1142 305 979 305 787 c 0
 305 685 357 674 478 674 c 1
 478 932 l 2
 478 1053 621 1184 679 1184 c 0
 696 1184 707 1173 707 1148 c 2
 707 719 l 1
 874 751 l 1
 878 751 l 2
 891 751 897 739 897 718 c 0
 897 646 823 482 730 461 c 1
 708 449 l 1
 708 223 l 2
 708 74 581 -25 519 -25 c 0
 494 -25 478 -9 478 24 c 2
 478 416 l 1
 233 416 l 2
 160 416 72 430 72 558 c 0
 72 845 429 1396 469 1453 c 0
 476 1463 484 1468 491 1468 c 0
 514 1468 536 1430 536 1387 c 0
 536 1369 532 1351 524 1334 c 0
EndSplineSet
Validated: 1
EndChar

StartChar: five
Encoding: 53 53 7
Width: 756
VWidth: 2622
Flags: W
HStem: 1127 334<354.214 589.631> 1153 331<279.442 478.11>
VStem: 75 200<883.5 1124.41> 359 227<341.318 617.355>
LayerCount: 2
Fore
SplineSet
586 557 m 0x70
 586 180 222 -54 131 -54 c 0
 96 -54 75 -34 75 -7 c 0
 75 14 88 38 119 60 c 1
 190 116 359 238 359 375 c 0
 359 676 247 712 109 824 c 1
 91 839 l 2
 80 847 75 868 75 899 c 0
 75 1064 224 1484 353 1484 c 0x70
 379 1484 398 1461 482 1461 c 0xb0
 504 1461 527 1462 556 1462 c 0
 605 1462 655 1470 704 1484 c 2x70
 728 1491 l 2
 730 1491 733 1492 734 1492 c 0
 746 1492 750 1486 750 1475 c 0
 750 1458 739 1430 728 1399 c 1
 661 1238 600 1127 464 1127 c 2
 429 1127 l 2xb0
 398 1127 373 1129 319 1153 c 1
 293 1153 275 1122 275 1096 c 0
 275 1078 284 1063 304 1063 c 1
 437 1011 586 808 586 557 c 0x70
EndSplineSet
Validated: 1
EndChar

StartChar: six
Encoding: 54 54 8
Width: 857
VWidth: 2611
Flags: W
HStem: 0 246<302 549.894>
VStem: 76 208<497.148 800.795> 597 196<308.226 673.5>
LayerCount: 2
Fore
SplineSet
408 833 m 0
 408 884 501 1010 606 1010 c 3
 723 1010 793 723 793 624 c 0
 793 215 622 0 378 0 c 0
 226 0 76 236 76 519 c 0
 76 1007 490 1441 533 1491 c 1
 543 1501 553 1505 562 1505 c 0
 590 1505 610 1467 610 1429 c 0
 610 1406 603 1382 587 1366 c 0
 460 1236 284 1082 284 749 c 0
 284 572 384 246 521 246 c 3
 567 246 597 300 597 361 c 0
 597 533 518 705 443 772 c 1
 419 791 408 811 408 833 c 0
EndSplineSet
Validated: 1
EndChar

StartChar: seven
Encoding: 55 55 9
Width: 712
VWidth: 2610
Flags: W
HStem: 1079 339<282.287 470>
VStem: 59 635<1242.14 1360.62>
LayerCount: 2
Fore
SplineSet
453 1418 m 0
 564 1418 620 1439 638 1439 c 0
 669 1439 694 1411 694 1374 c 0
 694 1362 691 1347 685 1333 c 1
 678 1313 l 1
 562 1022 381 578 381 292 c 2
 381 274 l 2
 381 132 249 -15 182 -15 c 0
 159 -15 144 2 144 40 c 0
 144 70 152 111 172 166 c 1
 470 1079 l 1
 387 1079 l 2
 151 1079 97 1128 83 1153 c 2
 71 1175 l 1
 63 1187 59 1203 59 1221 c 0
 59 1324 172 1501 236 1501 c 0
 244 1501 252 1497 259 1491 c 2
 274 1472 l 2
 290 1452 329 1418 453 1418 c 0
EndSplineSet
Validated: 1
EndChar

StartChar: eight
Encoding: 56 56 10
Width: 864
VWidth: 2613
Flags: W
HStem: 0 234<222.5 433.669>
VStem: 73 218<180.5 523.5> 102 208<939 1179.41> 524 219<1071 1379.81> 557 214<372.745 682>
LayerCount: 2
Fore
SplineSet
557 406 m 3xc8
 557 559 454 681 374 713 c 1
 327 642 291 570 291 477 c 3
 291 355 333 234 414 234 c 3
 473 234 557 322 557 406 c 3xc8
102 1022 m 0xa0
 102 1193 320 1445 368 1445 c 0
 390 1445 413 1423 413 1396 c 0
 413 1385 408 1373 397 1362 c 0
 340 1302 310 1226 310 1170 c 0
 310 1057 394 948 485 925 c 1
 513 981 524 1045 524 1097 c 0
 524 1182 497 1248 453 1248 c 0
 430 1248 430 1238 415 1238 c 0
 401 1238 392 1250 392 1271 c 0
 392 1349 531 1498 629 1498 c 0
 706 1498 743 1400 743 1298 c 0xb0
 743 1157 614 970 552 896 c 1
 647 843 771 772 771 592 c 0
 771 265 480 0 279 0 c 0
 166 0 73 105 73 256 c 0xc8
 73 504 215 599 304 729 c 1
 230 772 102 856 102 1022 c 0xa0
EndSplineSet
Validated: 1
EndChar

StartChar: nine
Encoding: 57 57 11
Width: 904
VWidth: 2609
Flags: W
HStem: 539 221<212 450> 1273 236<313.009 587.5>
VStem: 88 195<903.45 1228.34> 596 210<637.059 1022.28>
LayerCount: 2
Fore
SplineSet
439 760 m 0
 461 760 473 776 489 776 c 0
 505 776 513 762 513 741 c 0
 513 720 505 693 487 663 c 1
 432 603 363 539 277 539 c 0
 147 539 88 788 88 926 c 0
 88 1266 213 1509 500 1509 c 3
 675 1509 806 1218 806 963 c 0
 806 409 475 131 392 60 c 1
 372 42 l 1
 356 25 338 18 322 18 c 0
 290 18 265 46 265 87 c 0
 265 138 303 175 325 201 c 0
 412 305 596 469 596 713 c 3
 596 960 502 1273 361 1273 c 3
 301 1273 283 1190 283 1138 c 3
 283 1010 351 760 439 760 c 0
EndSplineSet
Validated: 1
EndChar

StartChar: backslash
Encoding: 92 92 12
Width: 973
VWidth: 2254
Flags: W
LayerCount: 2
Fore
SplineSet
57 1545 m 0
 57 1604 106 1670 150 1670 c 0
 167 1670 181 1661 191 1639 c 2
 864 177 l 2
 871 163 873 149 873 136 c 0
 873 71 819 11 780 11 c 0
 764 11 749 20 739 42 c 2
 66 1504 l 2
 60 1517 57 1531 57 1545 c 0
EndSplineSet
Validated: 1
EndChar

StartChar: bracketright
Encoding: 93 93 13
Width: 527
VWidth: 2266
Flags: W
HStem: -403 140<121.113 282> 1521 139<130.731 282>
VStem: 119 337<-400.439 -263.025 1521.03 1660>
LayerCount: 2
Fore
SplineSet
145 -403 m 2
 129 -403 119 -366 119 -331 c 0
 119 -297 128 -263 145 -263 c 2
 282 -263 l 1
 282 1521 l 1
 155 1521 l 2
 138 1521 129 1556 129 1591 c 0
 129 1625 137 1660 155 1660 c 2
 415 1660 l 2
 435 1660 456 1627 456 1587 c 2
 456 -336 l 2
 456 -373 426 -403 397 -403 c 2
 145 -403 l 2
EndSplineSet
Validated: 1
EndChar

StartChar: asciicircum
Encoding: 94 94 14
Width: 742
VWidth: 2211
Flags: W
VStem: 108 540
LayerCount: 2
Fore
SplineSet
648 981 m 2
 649 978 650 973 650 971 c 0
 650 946 622 934 590 934 c 0
 553 934 511 950 502 981 c 2
 379 1385 l 1
 255 980 l 2
 245 948 204 934 168 934 c 0
 136 934 108 945 108 969 c 0
 108 972 106 976 108 980 c 2
 313 1591 l 1
 321 1619 348 1630 375 1630 c 0
 406 1630 437 1617 446 1591 c 2
 648 981 l 2
EndSplineSet
Validated: 1
EndChar

StartChar: underscore
Encoding: 95 95 15
Width: 1026
VWidth: 2368
Flags: W
HStem: -260 156<97.2124 1300.99>
LayerCount: 2
Fore
SplineSet
144 -260 m 2
 110 -260 92 -221 92 -184 c 0
 92 -145 110 -104 144 -104 c 2
 1254 -104 l 2
 1289 -104 1306 -143 1306 -182 c 0
 1306 -219 1289 -260 1254 -260 c 2
 144 -260 l 2
EndSplineSet
Validated: 1
EndChar

StartChar: grave
Encoding: 96 96 16
Width: 508
VWidth: 2198
Flags: W
HStem: 1293 332
VStem: 83 309
LayerCount: 2
Fore
SplineSet
388 1353 m 2
 391 1349 392 1345 392 1341 c 0
 392 1317 357 1293 330 1293 c 0
 324 1293 318 1295 313 1298 c 2
 95 1484 l 2
 87 1490 83 1500 83 1510 c 0
 83 1557 151 1625 195 1625 c 0
 207 1625 216 1624 223 1614 c 2
 388 1353 l 2
EndSplineSet
Validated: 1
EndChar

StartChar: braceleft
Encoding: 123 123 17
Width: 661
VWidth: 2267
Flags: W
HStem: -449 201<445.75 605.661> 1623 200<447.246 606.621>
VStem: 226 195<-223.82 515.952 860.297 1600.5>
LayerCount: 2
Fore
SplineSet
421 1022 m 2
 421 939 414 765 257 691 c 1
 347 641 421 553 421 353 c 2
 421 -35 l 2
 421 -199 457 -248 511 -248 c 2
 581 -248 l 2
 601 -248 611 -296 611 -343 c 0
 611 -397 600 -449 581 -449 c 2
 437 -449 l 2
 361 -449 226 -347 226 -82 c 2
 226 325 l 2
 226 485 158 569 115 579 c 2
 95 583 l 1
 72 583 59 639 59 693 c 0
 59 745 71 796 95 796 c 1
 115 800 l 2
 157 808 226 889 226 1052 c 2
 226 1459 l 2
 226 1724 359 1823 437 1823 c 2
 580 1823 l 2
 601 1823 612 1772 612 1721 c 0
 612 1672 602 1623 580 1623 c 2
 511 1623 l 2
 457 1623 421 1569 421 1412 c 2
 421 1022 l 2
EndSplineSet
Validated: 1
EndChar

StartChar: bar
Encoding: 124 124 18
Width: 361
VWidth: 2254
Flags: W
VStem: 100 162<-34.6147 1636.21>
LayerCount: 2
Fore
SplineSet
100 1567 m 2
 100 1617 141 1644 181 1644 c 0
 221 1644 262 1617 262 1567 c 2
 262 35 l 2
 262 -17 221 -42 181 -42 c 0
 141 -42 100 -17 100 35 c 2
 100 1567 l 2
EndSplineSet
Validated: 1
EndChar

StartChar: braceright
Encoding: 125 125 19
Width: 661
VWidth: 2267
Flags: W
HStem: -449 201<65.3394 225.25> 1623 200<64.3792 223.754>
VStem: 250 195<-223.82 515.952 860.297 1600.5>
LayerCount: 2
Fore
SplineSet
250 1022 m 2
 250 1412 l 2
 250 1569 214 1623 160 1623 c 2
 91 1623 l 2
 69 1623 59 1672 59 1721 c 0
 59 1772 70 1823 91 1823 c 2
 234 1823 l 2
 312 1823 445 1724 445 1459 c 2
 445 1052 l 2
 445 889 514 808 556 800 c 2
 576 796 l 1
 600 796 612 745 612 693 c 0
 612 639 599 583 576 583 c 1
 556 579 l 2
 513 569 445 485 445 325 c 2
 445 -82 l 2
 445 -347 310 -449 234 -449 c 2
 90 -449 l 2
 71 -449 60 -397 60 -343 c 0
 60 -296 70 -248 90 -248 c 2
 160 -248 l 2
 214 -248 250 -199 250 -35 c 2
 250 353 l 2
 250 553 324 641 414 691 c 1
 257 765 250 939 250 1022 c 2
EndSplineSet
Validated: 1
EndChar

StartChar: sheva
Encoding: 1456 1456 21
Width: 0
VWidth: 2273
GlyphClass: 4
Flags: W
HStem: -549 196<-81.9141 81.9141> -336 196<-83.2356 82.073>
VStem: -99 198<-532.178 -369.453 -319.494 -156.506>
AnchorPoint: "N2r-1" -200 0 mark 0
AnchorPoint: "TM-1" -171 0 basemark 0
AnchorPoint: "MT-1" 89 0 mark 0
AnchorPoint: "N-1" -50 0 mark 0
LayerCount: 2
Fore
SplineSet
-99 -450 m 0
 -99 -396 -54 -353 0 -353 c 0
 54 -353 99 -396 99 -450 c 0
 99 -505 55 -549 0 -549 c 0
 -55 -549 -99 -505 -99 -450 c 0
-99 -238 m 0
 -99 -183 -54 -140 0 -140 c 0
 55 -140 97 -182 97 -238 c 0
 97 -294 55 -336 0 -336 c 0
 -54 -336 -99 -293 -99 -238 c 0
EndSplineSet
Validated: 1
EndChar

StartChar: hatafsegol
Encoding: 1457 1457 22
Width: 0
VWidth: 2273
GlyphClass: 4
Flags: W
HStem: -551 198<-185.914 -22.7695 131.35 293.722> -339 197<-293.164 -132.454 -69.4944 87.2933 130.77 293.914>
VStem: -311 197<-319.178 -155.506> -203 197<-534.494 -370.402> -89 197<-317.178 -153.506> 114 197<-534.494 -372.453 -322.494 -158.822>
AnchorPoint: "N2r-3" -165 0 mark 0
AnchorPoint: "TM-1" -416 0 basemark 0
AnchorPoint: "MT-1" 339 0 mark 0
AnchorPoint: "N-3" -70 0 mark 0
LayerCount: 2
Fore
SplineSet
114 -453 m 0xc4
 114 -397 160 -356 213 -356 c 0
 270 -356 311 -399 311 -453 c 0
 311 -508 268 -551 213 -551 c 0
 160 -551 114 -508 114 -453 c 0xc4
114 -241 m 0
 114 -186 158 -142 212 -142 c 0
 267 -142 311 -186 311 -241 c 0
 311 -296 266 -339 212 -339 c 0
 158 -339 114 -296 114 -241 c 0
-89 -235 m 0xcc
 -89 -180 -45 -137 9 -137 c 0
 65 -137 108 -181 108 -235 c 0
 108 -286 68 -334 9 -334 c 0
 -45 -334 -89 -290 -89 -235 c 0xcc
-203 -453 m 0xd4
 -203 -398 -159 -353 -104 -353 c 0
 -49 -353 -6 -399 -6 -453 c 0
 -6 -508 -50 -551 -104 -551 c 0
 -158 -551 -203 -508 -203 -453 c 0xd4
-311 -237 m 0xe4
 -311 -182 -268 -139 -213 -139 c 0
 -159 -139 -114 -182 -114 -237 c 0
 -114 -292 -158 -336 -213 -336 c 0
 -269 -336 -311 -292 -311 -237 c 0xe4
EndSplineSet
Validated: 1
EndChar

StartChar: hatafpatah
Encoding: 1458 1458 23
Width: 0
VWidth: 2273
GlyphClass: 4
Flags: W
HStem: -549 196<111.139 275.23> -336 196<108.927 274.236> -304 162<-296.682 56.7846>
VStem: -298 356<-304 -142> 94 198<-531.914 -369.453 -318.164 -157.836>
AnchorPoint: "N2r-3" -170 0 mark 0
AnchorPoint: "TM-1" -397 0 basemark 0
AnchorPoint: "MT-1" 314 0 mark 0
AnchorPoint: "N-3" -70 0 mark 0
LayerCount: 2
Fore
SplineSet
94 -450 m 0x98
 94 -396 139 -353 194 -353 c 0
 248 -353 292 -396 292 -450 c 0
 292 -504 249 -549 194 -549 c 0
 139 -549 94 -505 94 -450 c 0x98
94 -238 m 0
 94 -183 136 -140 191 -140 c 0
 245 -140 290 -183 290 -238 c 0
 290 -293 245 -336 191 -336 c 0xd8
 136 -336 94 -293 94 -238 c 0
53 -304 m 1xb8
 -292 -304 l 1
 -296 -278 -298 -251 -298 -224 c 0
 -298 -197 -296 -170 -292 -142 c 1
 53 -142 l 1
 56 -168 58 -194 58 -220 c 0
 58 -248 56 -276 53 -304 c 1xb8
EndSplineSet
Validated: 1
EndChar

StartChar: hatafqamats
Encoding: 1459 1459 24
Width: 0
VWidth: 2273
GlyphClass: 4
Flags: W
HStem: -548 195<157.559 321.23> -336 197<157.189 319.494> -304 167<-338 -200 -34 89>
VStem: -200 166<-555 -304> 141 197<-531.23 -369.189 -318.387 -156.557>
AnchorPoint: "N2r-3" -170 0 mark 0
AnchorPoint: "TM-1" -453 0 basemark 0
AnchorPoint: "MT-1" 368 0 mark 0
AnchorPoint: "N-3" -70 0 mark 0
LayerCount: 2
Fore
SplineSet
141 -450 m 0x98
 141 -392 188 -353 240 -353 c 0
 295 -353 338 -395 338 -450 c 0
 338 -504 294 -548 240 -548 c 0
 184 -548 141 -504 141 -450 c 0x98
141 -237 m 0
 141 -181 183 -139 238 -139 c 0
 293 -139 336 -182 336 -237 c 0
 336 -292 294 -336 238 -336 c 0xd8
 180 -336 141 -289 141 -237 c 0
-338 -137 m 1xb8
 89 -137 l 1
 89 -304 l 1
 -34 -304 l 1
 -34 -555 l 1
 -200 -555 l 1
 -200 -304 l 1
 -338 -304 l 1
 -338 -137 l 1xb8
EndSplineSet
Validated: 1
EndChar

StartChar: hiriq
Encoding: 1460 1460 25
Width: 0
VWidth: 2273
GlyphClass: 4
Flags: W
HStem: -337 197<-81.9411 82.4414>
VStem: -99 198<-321.53 -156.509>
AnchorPoint: "Y-1" 286 0 mark 0
AnchorPoint: "N2r-1" -200 0.333336 mark 0
AnchorPoint: "TM-1" -171 0.333336 basemark 0
AnchorPoint: "MT-1" 89 0.333336 mark 0
AnchorPoint: "N-1" -50 0.333336 mark 0
LayerCount: 2
Fore
SplineSet
-99 -239 m 0
 -99 -188 -59 -140 0 -140 c 0
 56 -140 99 -185 99 -239 c 0
 99 -293 56 -337 0 -337 c 0
 -56 -337 -99 -293 -99 -239 c 0
EndSplineSet
Validated: 1
EndChar

StartChar: tsere
Encoding: 1461 1461 26
Width: 0
VWidth: 2273
GlyphClass: 4
Flags: W
HStem: -337 196<-206.236 -39.7644 40.4698 205.178>
VStem: -222 198<-320.494 -157.506> 25 197<-320.494 -156.822>
AnchorPoint: "N2r-2" -180 0 mark 0
AnchorPoint: "TM-1" -315 0 basemark 0
AnchorPoint: "MT-1" 233 0 mark 0
AnchorPoint: "N-2" -80 0 mark 0
LayerCount: 2
Fore
SplineSet
25 -239 m 0
 25 -184 69 -140 123 -140 c 0
 178 -140 222 -184 222 -239 c 0
 222 -294 177 -337 123 -337 c 0
 69 -337 25 -294 25 -239 c 0
-222 -239 m 0
 -222 -184 -177 -141 -123 -141 c 0
 -69 -141 -24 -184 -24 -239 c 0
 -24 -294 -69 -337 -123 -337 c 0
 -177 -337 -222 -294 -222 -239 c 0
EndSplineSet
Validated: 1
EndChar

StartChar: segol
Encoding: 1462 1462 27
Width: 0
VWidth: 2273
GlyphClass: 4
Flags: W
HStem: -551 198<-81.6016 84.6463> -336 197<-208.23 -44.1387 44.1387 208.23>
VStem: -225 198<-319.178 -155.506> -97 198<-533.104 -370.896> 27 198<-319.178 -155.506>
AnchorPoint: "N2r-2" -180 0 mark 0
AnchorPoint: "TM-1" -319 0 basemark 0
AnchorPoint: "MT-1" 233 0 mark 0
AnchorPoint: "N-2" -80 0 mark 0
LayerCount: 2
Fore
SplineSet
27 -237 m 0xc8
 27 -182 72 -139 127 -139 c 0
 181 -139 225 -182 225 -237 c 0
 225 -292 181 -336 127 -336 c 0
 72 -336 27 -292 27 -237 c 0xc8
-97 -452 m 0xd0
 -97 -400 -58 -353 0 -353 c 0
 54 -353 101 -396 101 -452 c 0
 101 -508 54 -551 0 -551 c 0
 -58 -551 -97 -504 -97 -452 c 0xd0
-225 -237 m 0xe0
 -225 -182 -181 -139 -127 -139 c 0
 -72 -139 -27 -182 -27 -237 c 0
 -27 -292 -72 -336 -127 -336 c 0
 -181 -336 -225 -292 -225 -237 c 0xe0
EndSplineSet
Validated: 1
EndChar

StartChar: patah
Encoding: 1463 1463 28
Width: 0
VWidth: 2273
GlyphClass: 4
Flags: W
HStem: -287 147<-200.473 202.194>
VStem: -202 406<-287 -141.124>
AnchorPoint: "N2r-2" -150 0 mark 0
AnchorPoint: "TM-1" -282 0 basemark 0
AnchorPoint: "MT-1" 200 0 mark 0
AnchorPoint: "N-2" -80 0 mark 0
LayerCount: 2
Fore
SplineSet
194 -287 m 1
 -194 -287 l 1
 -199 -261 -202 -236 -202 -209 c 0
 -202 -187 -200 -164 -194 -140 c 1
 194 -140 l 1
 200 -162 204 -186 204 -212 c 0
 204 -235 201 -259 194 -287 c 1
EndSplineSet
Validated: 1
EndChar

StartChar: qamats
Encoding: 1464 1464 29
Width: 0
VWidth: 2273
GlyphClass: 4
Flags: W
HStem: -304 164<-219.466 -74 93 217.861>
VStem: -222 441<-302.783 -140> -74 167<-558.069 -304>
AnchorPoint: "N2r-2" -175 0 mark 0
AnchorPoint: "TM-1" -300 0 basemark 0
AnchorPoint: "MT-1" 221 0 mark 0
AnchorPoint: "N-2" -80 0 mark 0
LayerCount: 2
Fore
SplineSet
-214 -140 m 1xc0
 214 -140 l 1
 217 -167 219 -195 219 -223 c 0xc0
 219 -250 217 -277 214 -304 c 1
 93 -304 l 1
 93 -554 l 1
 64 -558 36 -559 8 -559 c 0
 -20 -559 -47 -558 -74 -554 c 1
 -74 -304 l 1xa0
 -214 -304 l 1
 -220 -278 -222 -254 -222 -229 c 0
 -222 -199 -218 -170 -214 -140 c 1xc0
EndSplineSet
Validated: 1
EndChar

StartChar: holam
Encoding: 1465 1465 30
Width: 0
VWidth: 2273
GlyphClass: 4
Flags: W
HStem: 1284 197<-81.9411 82.4414>
VStem: -99 198<1299.47 1464.49>
AnchorPoint: "H-1" 0 0 mark 0
LayerCount: 2
Fore
SplineSet
-99 1382 m 0
 -99 1433 -59 1481 0 1481 c 0
 56 1481 99 1436 99 1382 c 0
 99 1328 56 1284 0 1284 c 0
 -56 1284 -99 1328 -99 1382 c 0
EndSplineSet
Validated: 1
EndChar

StartChar: qubuts
Encoding: 1467 1467 31
Width: 0
VWidth: 2273
GlyphClass: 4
Flags: W
HStem: -571 176<54.1531 207.039> -433 176<-75.1201 77.7656> -292 177<-196.211 -41.1124>
VStem: -208 179<-279.079 -127.647> -88 179<-420.626 -270.153> 41 179<-558.039 -407.333>
AnchorPoint: "N2r-2" -200 0 mark 0
AnchorPoint: "TM-1" -310 0 basemark 0
AnchorPoint: "MT-1" 225 0 mark 0
AnchorPoint: "N-2" -143 0 mark 0
LayerCount: 2
Fore
SplineSet
41 -481 m 0x84
 41 -433 82 -395 130 -395 c 0
 180 -395 220 -433 220 -481 c 0
 220 -531 180 -571 130 -571 c 0
 82 -571 41 -531 41 -481 c 0x84
-88 -346 m 0x48
 -88 -298 -48 -257 0 -257 c 0
 50 -257 91 -298 91 -346 c 0
 91 -395 50 -433 0 -433 c 0
 -48 -433 -88 -395 -88 -346 c 0x48
-208 -203 m 0x30
 -208 -154 -168 -115 -120 -115 c 0
 -70 -115 -29 -154 -29 -203 c 0
 -29 -252 -70 -292 -120 -292 c 0
 -168 -292 -208 -252 -208 -203 c 0x30
EndSplineSet
Validated: 1
EndChar

StartChar: dagesh
Encoding: 1468 1468 32
Width: 0
VWidth: 2273
GlyphClass: 4
Flags: W
HStem: 462 196<-81.9141 81.9141>
VStem: -99 198<478.189 641.178>
AnchorPoint: "D-1" -1 0 mark 0
LayerCount: 2
Fore
SplineSet
-99 559 m 0
 -99 614 -55 658 0 658 c 0
 55 658 99 614 99 559 c 0
 99 504 54 462 0 462 c 0
 -54 462 -99 504 -99 559 c 0
EndSplineSet
Validated: 1
EndChar

StartChar: maqaf
Encoding: 1470 1470 33
Width: 824
VWidth: 2273
GlyphClass: 2
Flags: W
HStem: 792 306<115.36 710.252>
VStem: 103 624<794.082 1095.83>
LayerCount: 2
Fore
SplineSet
705 792 m 1
 127 792 l 1
 113 833 103 901 103 945 c 0
 103 987 103 1052 118 1098 c 1
 696 1098 l 1
 712 1056 727 993 727 952 c 0
 727 907 720 836 705 792 c 1
EndSplineSet
Validated: 1
EndChar

StartChar: rafe
Encoding: 1471 1471 34
Width: 0
VWidth: 2273
GlyphClass: 4
Flags: W
HStem: 1337 201<-257.654 257.751>
VStem: -264 528<1338.68 1536.27>
AnchorPoint: "R-1" 0 0 mark 0
LayerCount: 2
Fore
SplineSet
246 1337 m 1
 -246 1337 l 1
 -258 1367 -264 1398 -264 1431 c 0
 -264 1466 -258 1501 -246 1538 c 1
 246 1538 l 1
 256 1506 264 1472 264 1435 c 0
 264 1405 259 1373 246 1337 c 1
EndSplineSet
Validated: 1
EndChar

StartChar: shindot
Encoding: 1473 1473 35
Width: 0
VWidth: 2273
GlyphClass: 4
Flags: W
HStem: 1225 197<-81.9411 82.4414>
VStem: -99 198<1240.47 1405.49>
AnchorPoint: "S-1" -900 -200 mark 0
LayerCount: 2
Fore
SplineSet
-99 1323 m 0
 -99 1374 -59 1422 0 1422 c 0
 56 1422 99 1377 99 1323 c 0
 99 1269 56 1225 0 1225 c 0
 -56 1225 -99 1269 -99 1323 c 0
EndSplineSet
Validated: 1
EndChar

StartChar: sindot
Encoding: 1474 1474 36
Width: 0
VWidth: 2273
GlyphClass: 4
Flags: W
HStem: 1225 197<-81.9411 82.4414>
VStem: -99 198<1240.47 1405.49>
AnchorPoint: "S-1" 400 -100 mark 0
LayerCount: 2
Fore
SplineSet
-99 1323 m 0
 -99 1374 -59 1422 0 1422 c 0
 56 1422 99 1377 99 1323 c 0
 99 1269 56 1225 0 1225 c 0
 -56 1225 -99 1269 -99 1323 c 0
EndSplineSet
Validated: 1
EndChar

StartChar: sofpasuq
Encoding: 1475 1475 37
Width: 528
VWidth: 2273
GlyphClass: 2
Flags: W
HStem: 45 334<153.411 373.439> 744 334<153.411 373.892>
VStem: 100 327<99.6549 323.648 796.393 1023.74>
LayerCount: 2
Fore
SplineSet
100 912 m 0
 100 1003 173 1078 263 1078 c 0
 354 1078 428 1004 428 912 c 0
 428 820 354 744 263 744 c 0
 173 744 100 820 100 912 c 0
100 211 m 0
 100 303 173 379 263 379 c 0
 354 379 427 303 427 211 c 0
 427 120 354 45 263 45 c 0
 173 45 100 120 100 211 c 0
EndSplineSet
Validated: 1
EndChar

StartChar: alef
Encoding: 1488 1488 38
Width: 1549
VWidth: 2273
GlyphClass: 2
Flags: W
VStem: 138 272<265.819 500.338> 1044 291<830.608 996.61>
AnchorPoint: "D-1" 805 -475 basechar 0
AnchorPoint: "N2r-3" 761 0 basechar 0
AnchorPoint: "N2r-2" 761 0 basechar 0
AnchorPoint: "N2r-1" 761 0 basechar 0
AnchorPoint: "M2r-3" 761 0 basechar 0
AnchorPoint: "M2r-2" 761 0 basechar 0
AnchorPoint: "M2r-1" 761 0 basechar 0
AnchorPoint: "M-1" 788 0 basechar 0
AnchorPoint: "H-1" 176 0 basechar 0
AnchorPoint: "N-1" 748 14 basechar 0
AnchorPoint: "N-2" 744 0 basechar 0
AnchorPoint: "N-3" 744 0 basechar 0
AnchorPoint: "N-4" 761 0 basechar 0
LayerCount: 2
Fore
SplineSet
508 634 m 1
 451 543 410 438 410 351 c 0
 410 265 445 258 507 258 c 0
 520 258 534 258 549 258 c 1
 466 -3 l 9
 372 -3 l 17
 196 40 138 143 138 275 c 0
 138 444 242 661 334 864 c 1
 284 932 222 1062 180 1139 c 9
 343 1296 l 17
 474 1111 645 858 816 701 c 1
 976 772 1044 865 1044 921 c 0
 1044 971 991 1015 901 1056 c 9
 1078 1272 l 17
 1292 1191 1335 1101 1335 978 c 0
 1335 859 1228 691 1008 537 c 1
 1167 410 1343 299 1527 190 c 9
 1381 -27 l 17
 1082 158 752 381 508 634 c 1
EndSplineSet
Validated: 1
EndChar

StartChar: bet
Encoding: 1489 1489 39
Width: 1433
VWidth: 2273
GlyphClass: 2
Flags: W
HStem: 21 290<427.293 836.928>
VStem: 775 264<461.249 1011>
AnchorPoint: "R-1" 724 0 basechar 0
AnchorPoint: "D-1" 554 0 basechar 0
AnchorPoint: "N2r-2" 716 0 basechar 0
AnchorPoint: "N2r-3" 716 0 basechar 0
AnchorPoint: "N2r-1" 716 0 basechar 0
AnchorPoint: "M2r-3" 716 0 basechar 0
AnchorPoint: "M2r-2" 716 0 basechar 0
AnchorPoint: "M2r-1" 716 0 basechar 0
AnchorPoint: "M-1" 716 0 basechar 0
AnchorPoint: "H-1" 154 0 basechar 0
AnchorPoint: "N-4" 682 0 basechar 0
AnchorPoint: "N-3" 660 0 basechar 0
AnchorPoint: "N-2" 671 0 basechar 0
AnchorPoint: "N-1" 712 0 basechar 0
LayerCount: 2
Fore
SplineSet
285 894 m 1
 256 935 240 980 240 1026 c 1
 246 1077 261 1236 322 1299 c 1
 506 1299 l 1
 506 1286 483 1195 483 1159 c 0
 483 1130 503 1103 576 1092 c 1
 674 1104 811 1216 811 1216 c 17
 1039 1133 l 1
 1039 993 l 1
 1030 952 1026 904 1026 853 c 0
 1026 664 1079 426 1150 260 c 1
 1206 252 1271 230 1327 221 c 9
 1327 -48 l 17
 1128 -11 938 21 732 21 c 0
 538 21 439 -15 195 -93 c 9
 109 161 l 17
 414 284 579 311 841 311 c 1
 785 522 775 666 775 789 c 0
 775 841 775 963 775 1011 c 1
 733 930 607 838 516 838 c 0
 510 838 504 838 496 838 c 0
 438 838 328 841 285 894 c 1
EndSplineSet
Validated: 1
EndChar

StartChar: gimel
Encoding: 1490 1490 40
Width: 1104
VWidth: 2273
GlyphClass: 2
Flags: W
VStem: 79 206<109.983 214.714> 400 228<868.894 1161>
AnchorPoint: "D-1" 243 232 basechar 0
AnchorPoint: "N2r-2" 522 0 basechar 0
AnchorPoint: "N2r-3" 522 0 basechar 0
AnchorPoint: "N2r-1" 522 0 basechar 0
AnchorPoint: "M2r-3" 524 0 basechar 0
AnchorPoint: "M2r-2" 522 0 basechar 0
AnchorPoint: "M2r-1" 522 -7 basechar 0
AnchorPoint: "M-1" 567 0 basechar 0
AnchorPoint: "H-1" 266 0 basechar 0
AnchorPoint: "R-1" 522 0 basechar 0
AnchorPoint: "N-4" 540 0 basechar 0
AnchorPoint: "N-3" 525 -30 basechar 0
AnchorPoint: "N-2" 502 0 basechar 0
AnchorPoint: "N-1" 522 0 basechar 0
LayerCount: 2
Fore
SplineSet
400 1161 m 1
 631 1296 l 1
 629 1288 628 1266 628 1233 c 0
 628 1031 680 464 1120 198 c 1
 936 -24 l 17
 864 40 679 250 621 375 c 1
 583 422 556 427 528 427 c 0
 521 427 514 427 506 427 c 0
 374 427 311 211 285 -3 c 1
 204 51 146 79 79 117 c 1
 79 294 183 557 482 675 c 1
 435 787 400 1109 400 1156 c 0
 400 1159 400 1160 400 1161 c 1
EndSplineSet
Validated: 1
EndChar

StartChar: dalet
Encoding: 1491 1491 41
Width: 1280
VWidth: 2273
GlyphClass: 2
Flags: W
HStem: 853 279<378.996 729.381>
VStem: 708 243<344.327 871.66>
AnchorPoint: "D-1" 473 0 basechar 0
AnchorPoint: "N2r-2" 785 0 basechar 0
AnchorPoint: "N2r-3" 774 0 basechar 0
AnchorPoint: "N2r-1" 909 0 basechar 0
AnchorPoint: "M2r-3" 829 0 basechar 0
AnchorPoint: "M2r-2" 829 0 basechar 0
AnchorPoint: "M2r-1" 909 3 basechar 0
AnchorPoint: "M-1" 966 0 basechar 0
AnchorPoint: "H-1" 103 0 basechar 0
AnchorPoint: "R-1" 643 0 basechar 0
AnchorPoint: "N-4" 785 0 basechar 0
AnchorPoint: "N-3" 748 0 basechar 0
AnchorPoint: "N-2" 893 0 basechar 0
AnchorPoint: "N-1" 909 0 basechar 0
LayerCount: 2
Fore
SplineSet
285 954 m 1
 219 807 l 1
 185 829 99 928 68 957 c 9
 236 1290 l 17
 299 1242 356 1173 444 1147 c 1
 497 1138 549 1132 603 1132 c 0
 741 1132 886 1176 1079 1338 c 1
 1178 1059 l 1
 1120 1023 1031 963 986 913 c 1
 960 813 951 717 951 633 c 0
 951 409 1002 330 1095 63 c 1
 891 -66 l 1
 790 164 708 400 708 630 c 0
 708 707 729 843 783 941 c 1
 726 873 625 853 569 853 c 0
 452 853 311 920 285 954 c 1
EndSplineSet
Validated: 1
EndChar

StartChar: he
Encoding: 1492 1492 42
Width: 1467
VWidth: 2273
GlyphClass: 2
Flags: W
HStem: 885 234<604.996 940.779>
VStem: 208 225<-3 352.81> 983 226<643.959 961> 1004 248<1158.46 1287>
AnchorPoint: "R-1" 762 0 basechar 0
AnchorPoint: "D-1" 787 0 basechar 0
AnchorPoint: "N2r-2" 752 0 basechar 0
AnchorPoint: "N2r-3" 752 0 basechar 0
AnchorPoint: "N2r-1" 752 0 basechar 0
AnchorPoint: "M2r-3" 752 0 basechar 0
AnchorPoint: "M2r-2" 752 0 basechar 0
AnchorPoint: "M2r-1" 752 0 basechar 0
AnchorPoint: "M-1" 779 0 basechar 0
AnchorPoint: "H-1" 139 0 basechar 0
AnchorPoint: "N-4" 763 0 basechar 0
AnchorPoint: "N-3" 755 0 basechar 0
AnchorPoint: "N-2" 752 0 basechar 0
AnchorPoint: "N-1" 752 0 basechar 0
LayerCount: 2
Fore
SplineSet
983 961 m 1xe0
 923 904 835 885 763 885 c 0
 586 885 556 944 406 1002 c 1
 392 975 308 866 298 859 c 1
 213 873 162 901 114 951 c 9
 343 1326 l 17
 547 1194 l 1
 615 1154 692 1119 775 1119 c 1
 843 1119 913 1122 979 1156 c 1
 987 1209 986 1235 1004 1287 c 9
 1252 1287 l 17xd0
 1212 1168 1209 1088 1209 979 c 0xe0
 1209 611 1348 395 1444 99 c 9
 1252 -73 l 17xd0
 1148 168 983 628 983 961 c 1xe0
389 711 m 9
 671 813 l 17
 529 563 433 326 433 -3 c 9
 208 -3 l 17
 208 348 245 495 389 711 c 9
EndSplineSet
Validated: 1
EndChar

StartChar: vav
Encoding: 1493 1493 43
Width: 768
VWidth: 2273
GlyphClass: 2
Flags: W
VStem: 424 214<6.65477 551.916>
AnchorPoint: "D-1" 243 0 basechar 0
AnchorPoint: "H-2" 85 0 basechar 0
AnchorPoint: "N2r-2" 496 0 basechar 0
AnchorPoint: "N2r-3" 433 0 basechar 0
AnchorPoint: "N2r-1" 458 0 basechar 0
AnchorPoint: "M2r-3" 419 0 basechar 0
AnchorPoint: "M2r-2" 408 0 basechar 0
AnchorPoint: "M2r-1" 458 0 basechar 0
AnchorPoint: "M-1" 505 0 basechar 0
AnchorPoint: "H-1" 585 90 basechar 0
AnchorPoint: "N-1" 472 -4 basechar 0
AnchorPoint: "N-2" 431 0 basechar 0
AnchorPoint: "N-3" 431 0 basechar 0
AnchorPoint: "N-4" 427 0 basechar 0
LayerCount: 2
Fore
SplineSet
60 756 m 1
 135 893 319 1115 454 1278 c 1
 467 1278 480 1277 494 1275 c 1
 602 1275 638 518 638 0 c 9
 390 0 l 17
 413 142 424 282 424 416 c 0
 424 597 420 826 389 981 c 1
 382 985 375 987 366 987 c 0
 320 987 249 903 225 831 c 1
 60 756 l 1
EndSplineSet
Validated: 1
EndChar

StartChar: zayin
Encoding: 1494 1494 44
Width: 714
VWidth: 2273
GlyphClass: 2
Flags: W
VStem: 204 186<439.873 866.702>
AnchorPoint: "D-1" 24 133 basechar 0
AnchorPoint: "N2r-1" 351 0 basechar 0
AnchorPoint: "N2r-2" 349 0 basechar 0
AnchorPoint: "N2r-3" 377 0 basechar 0
AnchorPoint: "M2r-3" 366 0 basechar 0
AnchorPoint: "M2r-2" 366 0 basechar 0
AnchorPoint: "M2r-1" 366 0 basechar 0
AnchorPoint: "M-1" 398 0 basechar 0
AnchorPoint: "H-1" 142 0 basechar 0
AnchorPoint: "N-1" 384 0 basechar 0
AnchorPoint: "N-2" 373 0 basechar 0
AnchorPoint: "N-3" 399 4 basechar 0
AnchorPoint: "N-4" 277 0 basechar 0
LayerCount: 2
Fore
SplineSet
549 129 m 1
 312 -28 l 1
 218 296 204 436 204 860 c 1
 204 945 180 1018 99 1055 c 9
 306 1316 l 17
 429 1265 543 1133 588 1019 c 9
 441 848 l 25
 411 869 l 1
 396 820 390 769 390 715 c 0
 390 428 549 171 549 129 c 1
EndSplineSet
Validated: 1
EndChar

StartChar: het
Encoding: 1495 1495 45
Width: 1355
VWidth: 2273
GlyphClass: 2
Flags: W
HStem: 897 267<469.175 894.174>
VStem: 102 248<1106.04 1296> 192 217<54.5689 835.681> 866 231<225.503 855>
AnchorPoint: "N2r-1" 610 0 basechar 0
AnchorPoint: "N2r-2" 610 10 basechar 0
AnchorPoint: "N2r-3" 610 0 basechar 0
AnchorPoint: "M2r-3" 610 0 basechar 0
AnchorPoint: "M2r-2" 610 0 basechar 0
AnchorPoint: "M2r-1" 610 0 basechar 0
AnchorPoint: "M-1" 658 0 basechar 0
AnchorPoint: "H-1" -29 0 basechar 0
AnchorPoint: "N-1" 639 0 basechar 0
AnchorPoint: "N-2" 610 0 basechar 0
AnchorPoint: "N-3" 630 0 basechar 0
AnchorPoint: "N-4" 632 0 basechar 0
AnchorPoint: "D-1" 648 0 basechar 0
LayerCount: 2
Fore
SplineSet
401 821 m 1xd0
 408 709 409 644 409 538 c 0
 409 515 409 489 409 461 c 0
 409 322 402 140 387 0 c 9
 139 0 l 17
 177 236 192 431 192 600 c 0xb0
 192 924 153 1063 102 1296 c 1
 350 1296 l 1
 364 1221 361 1172 371 1097 c 1
 453 1138 574 1164 690 1164 c 0
 793 1164 909 1141 973 1094 c 1
 989 1134 1020 1205 1037 1245 c 1
 1243 1089 l 1
 1156 939 1097 768 1097 565 c 0
 1097 391 1130 217 1195 80 c 9
 989 -39 l 17
 903 116 866 321 866 524 c 0
 866 540 866 555 866 569 c 0
 866 684 868 759 896 867 c 1
 829 897 746 897 680 897 c 0
 587 897 494 870 401 821 c 1xd0
EndSplineSet
Validated: 1
EndChar

StartChar: tet
Encoding: 1496 1496 46
Width: 1561
VWidth: 2273
GlyphClass: 2
Flags: W
HStem: -14 273<644.164 967.877> 995 322<978.594 1172.09>
VStem: 276 216<555.994 868.888> 1232 233<490.66 928.17>
AnchorPoint: "D-1" 854 -80 basechar 0
AnchorPoint: "N2r-1" 780 0 basechar 0
AnchorPoint: "N2r-2" 780 0 basechar 0
AnchorPoint: "N2r-3" 780 0 basechar 0
AnchorPoint: "M2r-3" 780 0 basechar 0
AnchorPoint: "M2r-2" 780 0 basechar 0
AnchorPoint: "M2r-1" 780 0 basechar 0
AnchorPoint: "M-1" 883 0 basechar 0
AnchorPoint: "H-1" 101 0 basechar 0
AnchorPoint: "N-1" 763 0 basechar 0
AnchorPoint: "N-2" 780 0 basechar 0
AnchorPoint: "N-3" 819 0 basechar 0
AnchorPoint: "N-4" 819 0 basechar 0
LayerCount: 2
Fore
SplineSet
492 851 m 1
 492 530 642 281 678 267 c 1
 724 262 765 259 803 259 c 0
 1027 259 1116 348 1205 515 c 1
 1220 548 1232 603 1232 661 c 0
 1232 666 l 0
 1232 675 l 0
 1232 787 1230 979 1092 995 c 1
 1083 996 1074 995 1065 995 c 1
 952 995 946 904 861 653 c 1
 720 758 731 746 665 823 c 1
 765 1083 892 1317 1148 1317 c 1
 1335 1239 1465 998 1465 712 c 0
 1465 528 1432 328 1305 139 c 1
 1059 44 870 -14 564 -14 c 1
 362 254 276 475 276 863 c 1
 191 877 124 905 76 955 c 9
 307 1338 l 17
 535 1230 l 1
 494 1133 492 916 492 851 c 1
EndSplineSet
Validated: 1
EndChar

StartChar: yod
Encoding: 1497 1497 47
Width: 748
VWidth: 2273
GlyphClass: 2
Flags: W
HStem: 882 390<294.762 444.5>
VStem: 488 171<576 749.962>
AnchorPoint: "D-1" 309 82 basechar 0
AnchorPoint: "N2r-1" 485 0 basechar 0
AnchorPoint: "N2r-2" 485 0 basechar 0
AnchorPoint: "N2r-3" 485 0 basechar 0
AnchorPoint: "M2r-3" 458 0 basechar 0
AnchorPoint: "M2r-2" 391 0 basechar 0
AnchorPoint: "M2r-1" 485 0 basechar 0
AnchorPoint: "M-1" 519 0 basechar 0
AnchorPoint: "H-1" 102 0 basechar 0
AnchorPoint: "N-1" 493 0 basechar 0
AnchorPoint: "N-2" 435 0 basechar 0
AnchorPoint: "N-3" 447 0 basechar 0
AnchorPoint: "N-4" 402 0 basechar 0
LayerCount: 2
Fore
SplineSet
3236 380 m 29,0,-1
488 408 m 1,1,-1
 488 589 455 807 382 876 c 1,4,-1
 375 880 368 882 359 882 c 0,7,-1
 313 882 248 824 214 777 c 1,10,-1
 77 711 l 1,11,-1
 77 969 204 1272 433 1272 c 0,14,-1
 456 1272 480 1269 505 1263 c 1,17,-1
 608 1221 659 970 659 576 c 1,20,-1
 488 408 l 1,1,-1
EndSplineSet
Validated: 1
EndChar

StartChar: finalkaf
Encoding: 1498 1498 48
Width: 1104
VWidth: 2273
GlyphClass: 2
Flags: W
HStem: 821 253<344.593 624.142>
VStem: 659 225<378.811 872.974> 761 219<-207.947 225.963>
AnchorPoint: "D-1" 370 0 basechar 0
AnchorPoint: "N2r-1" 330 0 basechar 0
AnchorPoint: "N2r-2" 241 0 basechar 0
AnchorPoint: "N2r-3" 119 0 basechar 0
AnchorPoint: "M2r-2" 208 0 basechar 0
AnchorPoint: "M-1" 424 0 basechar 0
AnchorPoint: "H-1" 7 0 basechar 0
AnchorPoint: "R-1" 577 0 basechar 0
AnchorPoint: "N-1" 424 -5 basechar 0
AnchorPoint: "N-2" 274 0 basechar 0
AnchorPoint: "N-3" 202 -5 basechar 0
AnchorPoint: "N-4" 130 -5 basechar 0
LayerCount: 2
Fore
SplineSet
2424 400 m 29,0,-1
701 291 m 1,1,-1
 659 404 659 546 659 875 c 1,4,-1
 554 845 451 821 361 821 c 0,7,-1
 205 821 87 895 59 1143 c 9,10,-1
 236 1329 l 17,11,-1
 255 1150 362 1074 482 1074 c 0,14,-1
 585 1074 697 1129 776 1221 c 1,17,-1
 793 1251 836 1268 877 1268 c 0,20,-1
 927 1268 975 1243 975 1183 c 0,23,-1
 975 1171 974 1159 970 1145 c 1,26,-1
 908 997 884 881 884 776 c 0,29,-1
 884 618 907 428 962 255 c 1,32,-1
 975 199 980 141 980 85 c 0,35,-1
 980 -203 860 -415 785 -488 c 1,38,-1
 765 -458 745 -451 725 -431 c 1,41,-1
 757 -364 761 -266 761 -138 c 0,44,-1
 761 -8 740 135 701 291 c 1,1,-1
EndSplineSet
Validated: 1
EndChar

StartChar: kaf
Encoding: 1499 1499 49
Width: 1214
VWidth: 2273
GlyphClass: 2
Flags: HW
HStem: -40 284<175 728.258> 831 253<476.593 756.142>
VStem: 791 225<441.891 882.974>
AnchorPoint: "R-1" 720 0 basechar 0
AnchorPoint: "D-1" 440 0 basechar 0
AnchorPoint: "N2r-1" 507 0 basechar 0
AnchorPoint: "N2r-2" 507 0 basechar 0
AnchorPoint: "N2r-3" 507 0 basechar 0
AnchorPoint: "M2r-3" 507 0 basechar 0
AnchorPoint: "M2r-2" 507 0 basechar 0
AnchorPoint: "M2r-1" 507 0 basechar 0
AnchorPoint: "M-1" 507 0 basechar 0
AnchorPoint: "H-1" 115 0 basechar 0
AnchorPoint: "N-1" 506 0 basechar 0
AnchorPoint: "N-2" 451 0 basechar 0
AnchorPoint: "N-3" 485 0 basechar 0
AnchorPoint: "N-4" 519 0 basechar 0
LayerCount: 2
Fore
SplineSet
2517 639 m 29,0,0
834 354 m 1,0,1
 794 458 791 556 791 885 c 1,2,3
 686 855 583 831 493 831 c 0,4,5
 337 831 219 905 191 1153 c 9,6,-1
 368 1339 l 17,7,8
 387 1160 494 1084 614 1084 c 0,9,10
 717 1084 829 1139 908 1231 c 1,11,12
 925 1261 968 1278 1009 1278 c 0,13,14
 1059 1278 1107 1253 1107 1193 c 0,15,16
 1107 1181 1106 1169 1102 1155 c 1,17,18
 1040 1007 1016 891 1016 786 c 0,19,20
 1016 628 1040 491 1095 318 c 1,21,22
 1095 -39 592 -40 103 -40 c 0,23,-1
 95 -40 l 9,24,-1
 175 244 l 17,25,26
 175 244 176 244 179 244 c 0,27,28
 198 244 263 242 344 242 c 0,29,30
 505 242 729 251 791 309 c 0,31,32
 793 311 835 350 834 354 c 1,0,1
EndSplineSet
Validated: 1
EndChar

StartChar: lamed
Encoding: 1500 1500 50
Width: 1173
VWidth: 2273
GlyphClass: 2
Flags: W
VStem: -53 152<1666.94 1959.69> 237 205<1333.61 2035.8> 766 313<606.591 809.496>
AnchorPoint: "Y-1" 19 0 basechar 0
AnchorPoint: "D-1" 461 50 basechar 0
AnchorPoint: "N2r-1" 454 0 basechar 0
AnchorPoint: "N2r-2" 454 0 basechar 0
AnchorPoint: "N2r-3" 454 0 basechar 0
AnchorPoint: "M2r-3" 454 0 basechar 0
AnchorPoint: "M2r-2" 454 0 basechar 0
AnchorPoint: "M2r-1" 454 0 basechar 0
AnchorPoint: "M-1" 524 0 basechar 0
AnchorPoint: "H-1" -62 0 basechar 0
AnchorPoint: "N-1" 495 0 basechar 0
AnchorPoint: "N-2" 460 0 basechar 0
AnchorPoint: "N-3" 482 0 basechar 0
AnchorPoint: "N-4" 515 0 basechar 0
LayerCount: 2
Fore
SplineSet
433 1296 m 1
 682 1267 995 1095 1079 934 c 1
 1079 407 783 124 547 -34 c 9
 367 -34 l 17
 533 164 766 420 766 650 c 0
 766 679 765 780 759 811 c 1
 643 999 344 1079 139 1079 c 1
 198 1209 237 1618 237 1879 c 0
 237 1955 233 2012 226 2037 c 1
 151 2034 99 1883 99 1758 c 0
 99 1703 148 1616 165 1522 c 9
 90 1452 l 17
 21 1604 -53 1730 -53 1842 c 0
 -53 2039 39 2189 167 2351 c 1
 215 2402 285 2432 323 2432 c 0
 352 2432 379 2412 396 2362 c 1
 433 2218 442 1962 442 1729 c 0
 442 1477 433 1323 433 1296 c 1
EndSplineSet
Validated: 1
EndChar

StartChar: finalmem
Encoding: 1501 1501 51
Width: 1475
VWidth: 2273
GlyphClass: 2
Flags: W
HStem: 867 227<286.238 416 664 837.852>
VStem: 344 255<77.5 661.535> 476 203<1106.76 1296> 1175 220<305.817 675.259>
AnchorPoint: "N2r-1" 864 10 basechar 0
AnchorPoint: "N2r-2" 864 10 basechar 0
AnchorPoint: "N2r-3" 864 0 basechar 0
AnchorPoint: "M2r-3" 864 0 basechar 0
AnchorPoint: "M2r-2" 864 0 basechar 0
AnchorPoint: "M2r-1" 864 0 basechar 0
AnchorPoint: "M-1" 940 0 basechar 0
AnchorPoint: "H-1" 42 0 basechar 0
AnchorPoint: "N-1" 864 0 basechar 0
AnchorPoint: "N-2" 862 0 basechar 0
AnchorPoint: "N-3" 920 0 basechar 0
AnchorPoint: "N-4" 879 -34 basechar 0
AnchorPoint: "D-1" 842 4 basechar 0
LayerCount: 2
Fore
SplineSet
220 1311 m 1xd0
 220 1160 296 1094 431 1094 c 1
 437 1094 442 1094 448 1095 c 1
 456 1166 468 1220 476 1296 c 1
 679 1296 l 1xb0
 664 1098 l 1
 836 1098 920 1177 1037 1307 c 1
 1084 1296 l 1
 1282 1095 1395 675 1395 303 c 0
 1395 233 1390 167 1380 105 c 1
 1033 69 777 54 609 -150 c 9
 361 -150 l 17
 349 -60 344 32 344 123 c 0
 344 408 389 637 416 873 c 1
 398 869 378 867 358 867 c 1
 179 867 76 954 76 1137 c 1
 220 1311 l 1xd0
637 864 m 1
 615 686 599 582 599 399 c 0xd0
 599 328 604 238 613 163 c 1
 858 286 852 265 1175 312 c 1
 1175 561 1130 746 1009 1023 c 1
 908 954 861 888 637 864 c 1
EndSplineSet
Validated: 1
EndChar

StartChar: mem
Encoding: 1502 1502 52
Width: 1249
VWidth: 2273
GlyphClass: 2
Flags: W
HStem: -76 237<325.521 733.107> 389 178<127 261.373>
VStem: 176 200<1065.2 1163.95> 940 239<276.366 663.366>
AnchorPoint: "D-1" 727 -130 basechar 0
AnchorPoint: "N2r-1" 560 0 basechar 0
AnchorPoint: "N2r-2" 560 0 basechar 0
AnchorPoint: "N2r-3" 614 0 basechar 0
AnchorPoint: "M2r-3" 614 0 basechar 0
AnchorPoint: "M2r-2" 614 0 basechar 0
AnchorPoint: "M2r-1" 614 0 basechar 0
AnchorPoint: "M-1" 614 0 basechar 0
AnchorPoint: "H-1" 131 0 basechar 0
AnchorPoint: "N-1" 615 0 basechar 0
AnchorPoint: "N-2" 564 0 basechar 0
AnchorPoint: "N-3" 564 0 basechar 0
AnchorPoint: "N-4" 564 0 basechar 0
LayerCount: 2
Fore
SplineSet
204 1166 m 9
 379 1278 l 17
 379 1258 376 1240 376 1222 c 0
 376 1036 558 903 607 890 c 1
 731 1006 767 1128 767 1208 c 1
 931 1296 l 1
 1035 998 1179 622 1179 362 c 0
 1179 203 1128 78 985 20 c 1
 670 -52 489 -76 183 -76 c 1
 243 40 279 78 333 161 c 1
 369 161 407 161 445 161 c 0
 634 161 808 170 895 272 c 1
 937 326 940 366 940 430 c 0
 940 440 940 451 940 463 c 0
 940 596 922 738 865 887 c 1
 652 555 564 448 106 389 c 9
 127 567 l 17
 283 603 325 629 442 728 c 1
 286 789 176 992 176 1061 c 0
 176 1067 176 1074 176 1083 c 0
 176 1098 180 1122 204 1166 c 9
EndSplineSet
Validated: 1
EndChar

StartChar: finalnun
Encoding: 1503 1503 53
Width: 730
VWidth: 2273
GlyphClass: 2
Flags: W
VStem: 82 232<1046.5 1257.79> 398 252<19.5817 783.575>
AnchorPoint: "N2r-1" 59 0 basechar 0
AnchorPoint: "N2r-2" -29 0 basechar 0
AnchorPoint: "N2r-3" -196 0 basechar 0
AnchorPoint: "M-1" 120 0 basechar 0
AnchorPoint: "H-1" 20 0 basechar 0
AnchorPoint: "N-1" 90 0 basechar 0
AnchorPoint: "N-2" 4 0 basechar 0
AnchorPoint: "N-3" -180 0 basechar 0
AnchorPoint: "N-4" -220 0 basechar 0
AnchorPoint: "D-1" 220 0 basechar 0
LayerCount: 2
Fore
SplineSet
339 1155 m 1
 522 1086 650 875 650 540 c 0
 650 326 606 -71 531 -379 c 1
 444 -438 335 -487 264 -487 c 1
 346 -231 398 176 398 419 c 0
 398 611 369 784 309 912 c 1
 219 912 100 932 91 992 c 1
 85 1011 82 1034 82 1059 c 0
 82 1144 113 1260 168 1347 c 1
 327 1253 l 1
 322 1235 314 1216 314 1198 c 0
 314 1183 320 1168 339 1155 c 1
EndSplineSet
Validated: 1
EndChar

StartChar: nun
Encoding: 1504 1504 54
Width: 979
VWidth: 2273
GlyphClass: 2
Flags: W
HStem: -54 231<227.622 369.623>
VStem: 419 237<665.59 935.719>
AnchorPoint: "D-1" 285 0 basechar 0
AnchorPoint: "N2r-1" 555 0 basechar 0
AnchorPoint: "N2r-2" 555 0 basechar 0
AnchorPoint: "N2r-3" 556 0 basechar 0
AnchorPoint: "M2r-3" 556 0 basechar 0
AnchorPoint: "M2r-2" 556 0 basechar 0
AnchorPoint: "M2r-1" 556 0 basechar 0
AnchorPoint: "M-1" 598 0 basechar 0
AnchorPoint: "H-1" 216 0 basechar 0
AnchorPoint: "N-1" 607 0 basechar 0
AnchorPoint: "N-2" 574 0 basechar 0
AnchorPoint: "N-3" 556 0 basechar 0
AnchorPoint: "N-4" 574 0 basechar 0
LayerCount: 2
Fore
SplineSet
965 165 m 1
 768 0 493 -9 236 -54 c 9
 101 177 l 17
 288 177 468 248 633 316 c 1
 498 515 419 646 419 939 c 1
 388 900 361 884 321 884 c 0
 301 884 279 888 251 894 c 1
 317 1155 l 1
 493 1155 522 1269 635 1300 c 1
 640 1300 644 1301 649 1301 c 0
 684 1301 711 1280 734 1251 c 1
 689 1118 656 947 656 852 c 0
 656 695 693 685 768 552 c 1
 859 468 919 411 979 262 c 0
 982 253 984 244 984 233 c 0
 984 217 980 197 965 165 c 1
EndSplineSet
Validated: 1
EndChar

StartChar: samekh
Encoding: 1505 1505 55
Width: 1396
VWidth: 2273
GlyphClass: 2
Flags: W
HStem: -61 261<614.662 852.635> 894 204<577.109 889.958>
VStem: 320 187<379.308 796.621> 984 274<532.829 894>
AnchorPoint: "D-1" 732 0 basechar 0
AnchorPoint: "N2r-1" 682 0 basechar 0
AnchorPoint: "N2r-2" 682 0 basechar 0
AnchorPoint: "N2r-3" 682 0 basechar 0
AnchorPoint: "M2r-3" 682 0 basechar 0
AnchorPoint: "M2r-2" 682 0 basechar 0
AnchorPoint: "M2r-1" 682 0 basechar 0
AnchorPoint: "M-1" 778 0 basechar 0
AnchorPoint: "H-1" 112 0 basechar 0
AnchorPoint: "N-1" 735 0 basechar 0
AnchorPoint: "N-2" 660 0 basechar 0
AnchorPoint: "N-3" 735 0 basechar 0
AnchorPoint: "N-4" 735 0 basechar 0
LayerCount: 2
Fore
SplineSet
984 894 m 1
 819 894 637 867 492 829 c 1
 498 785 507 704 507 670 c 0
 507 549 483 557 460 410 c 1
 529 346 619 200 703 200 c 1
 954 200 984 408 984 894 c 1
266 296 m 1
 304 439 320 546 320 630 c 0
 320 699 309 753 288 797 c 1
 200 809 124 855 87 914 c 9
 320 1310 l 17
 579 1226 l 1
 579 1196 571 1166 571 1143 c 0
 571 1116 582 1098 627 1098 c 1
 1023 1098 1026 1296 1178 1308 c 1
 1204 1308 1232 1306 1261 1300 c 1
 1277 1240 1303 1185 1303 1116 c 0
 1303 1071 1292 1020 1258 956 c 1
 1258 258 964 -61 727 -61 c 1
 577 -61 488 38 418 176 c 9
 266 296 l 1
EndSplineSet
Validated: 1
EndChar

StartChar: ayin
Encoding: 1506 1506 56
Width: 1474
VWidth: 2273
GlyphClass: 2
Flags: W
VStem: 315 223<625.82 969.517> 1120 260<885.451 1251.79>
AnchorPoint: "N2r-1" 632 0 basechar 0
AnchorPoint: "N2r-2" 632 0 basechar 0
AnchorPoint: "N2r-3" 632 0 basechar 0
AnchorPoint: "M2r-3" 632 0 basechar 0
AnchorPoint: "M2r-2" 632 -3 basechar 0
AnchorPoint: "M2r-1" 632 0 basechar 0
AnchorPoint: "M-1" 769 0 basechar 0
AnchorPoint: "H-1" 222 0 basechar 0
AnchorPoint: "N-1" 634 0 basechar 0
AnchorPoint: "N-2" 634 0 basechar 0
AnchorPoint: "N-3" 687 0 basechar 0
AnchorPoint: "N-4" 776 0 basechar 0
AnchorPoint: "D-1" 828 307 basechar 0
LayerCount: 2
Fore
SplineSet
598 1017 m 1
 556 902 538 817 538 753 c 0
 538 574 679 564 838 564 c 1
 1003 739 1120 884 1120 1049 c 0
 1120 1099 1101 1219 1077 1275 c 1
 1325 1275 l 1
 1358 1213 1380 1081 1380 1014 c 0
 1380 511 556 -105 217 -153 c 1
 91 -153 3 -137 -53 -84 c 1
 98 -6 361 150 601 346 c 1
 414 401 315 551 315 756 c 0
 315 870 346 1000 409 1141 c 9
 598 1017 l 1
EndSplineSet
Validated: 1
Substitution2: "Ayin to Alt.Ayin change-1" ayinalt
EndChar

StartChar: finalpe
Encoding: 1507 1507 57
Width: 1182
VWidth: 2273
GlyphClass: 2
Flags: W
VStem: 880 222<-408 140.463>
AnchorPoint: "D-1" 615 -41 basechar 0
AnchorPoint: "N2r-1" 465 0 basechar 0
AnchorPoint: "N2r-2" 399 0 basechar 0
AnchorPoint: "N2r-3" 243 0 basechar 0
AnchorPoint: "M2r-2" 349 0 basechar 0
AnchorPoint: "M-1" 644 0 basechar 0
AnchorPoint: "H-1" 85 0 basechar 0
AnchorPoint: "R-1" 735 0 basechar 0
AnchorPoint: "N-4" 277 1 basechar 0
AnchorPoint: "N-3" 380 1 basechar 0
AnchorPoint: "N-2" 402 1 basechar 0
AnchorPoint: "N-1" 535 1 basechar 0
LayerCount: 2
Fore
SplineSet
880 -408 m 1
 880 -117 810 763 705 975 c 1
 605 928 495 907 312 729 c 1
 312 649 407 572 451 545 c 9
 325 425 l 17
 192 497 78 693 60 821 c 1
 196 947 498 1184 744 1291 c 1
 758 1291 770 1293 784 1293 c 0
 807 1293 831 1286 864 1247 c 1
 1066 939 1102 -30 1102 -408 c 1
 880 -408 l 1
EndSplineSet
Validated: 1
EndChar

StartChar: pe
Encoding: 1508 1508 58
Width: 1212
VWidth: 2273
GlyphClass: 2
Flags: W
HStem: -93 225<243 507.847>
VStem: 855 282<282.453 643.884>
AnchorPoint: "R-1" 782 0 basechar 0
AnchorPoint: "D-1" 653 48 basechar 0
AnchorPoint: "N2r-1" 553 0 basechar 0
AnchorPoint: "N2r-2" 553 0 basechar 0
AnchorPoint: "N2r-3" 553 0 basechar 0
AnchorPoint: "M2r-3" 552 0 basechar 0
AnchorPoint: "M2r-2" 552 0 basechar 0
AnchorPoint: "M2r-1" 552 0 basechar 0
AnchorPoint: "M-1" 552 0 basechar 0
AnchorPoint: "H-1" 132 0 basechar 0
AnchorPoint: "N-4" 596 0 basechar 0
AnchorPoint: "N-3" 596 0 basechar 0
AnchorPoint: "N-2" 585 0 basechar 0
AnchorPoint: "N-1" 640 0 basechar 0
LayerCount: 2
Fore
SplineSet
1137 189 m 1
 1021 15 615 -93 126 -93 c 9
 243 132 l 17
 594 174 693 228 855 303 c 1
 855 575 834 739 752 987 c 1
 652 940 542 919 359 741 c 1
 359 661 411 674 455 647 c 9
 329 527 l 17
 196 599 125 702 107 830 c 1
 243 956 545 1193 791 1300 c 1
 805 1300 817 1302 831 1302 c 0
 854 1302 878 1295 911 1256 c 1
 1045 942 1137 566 1137 189 c 1
EndSplineSet
Validated: 1
EndChar

StartChar: finaltsadi
Encoding: 1509 1509 59
Width: 1136
VWidth: 2273
GlyphClass: 2
Flags: W
VStem: 125 238<860.042 1287.84> 803 253<970.346 1120.55>
AnchorPoint: "N2r-1" 652 0 basechar 0
AnchorPoint: "N2r-2" 851 0 basechar 0
AnchorPoint: "N2r-3" 992 0 basechar 0
AnchorPoint: "M2r-3" 989 0 basechar 0
AnchorPoint: "M2r-2" 842 0 basechar 0
AnchorPoint: "M2r-1" 720 0 basechar 0
AnchorPoint: "M-1" 800 0 basechar 0
AnchorPoint: "H-1" 0 0 basechar 0
AnchorPoint: "N-4" 1000 0 basechar 0
AnchorPoint: "N-3" 950 0 basechar 0
AnchorPoint: "N-2" 850 0 basechar 0
AnchorPoint: "N-1" 750 0 basechar 0
AnchorPoint: "D-1" 6 0 basechar 0
LayerCount: 2
Fore
SplineSet
125 1106 m 1
 125 1166 132 1243 147 1302 c 9
 413 1302 l 17
 381 1226 366 1158 366 1094 c 0
 366 1061 363 1027 363 993 c 0
 363 945 369 897 393 854 c 1
 396 848 408 846 425 846 c 0
 533 846 803 953 803 1026 c 1
 803 1125 710 1146 710 1146 c 25
 803 1343 l 17
 926 1310 1056 1230 1056 1070 c 1
 1056 824 658 707 403 626 c 1
 475 90 641 41 641 -216 c 1
 581 -342 462 -420 323 -480 c 9
 132 -357 l 17
 245 -277 390 -215 399 -130 c 1
 166 339 125 739 125 1106 c 1
EndSplineSet
Validated: 1
EndChar

StartChar: tsadi
Encoding: 1510 1510 60
Width: 1308
VWidth: 2273
GlyphClass: 2
Flags: W
HStem: -78 216<211 658.281>
VStem: 156 226<828.25 1195.43> 933 264<891.978 1033.09>
AnchorPoint: "D-1" 299 -259 basechar 0
AnchorPoint: "N2r-1" 521 0 basechar 0
AnchorPoint: "N2r-2" 521 0 basechar 0
AnchorPoint: "N2r-3" 521 0 basechar 0
AnchorPoint: "M2r-3" 521 0 basechar 0
AnchorPoint: "M2r-2" 521 0 basechar 0
AnchorPoint: "M2r-1" 521 0 basechar 0
AnchorPoint: "M-1" 632 0 basechar 0
AnchorPoint: "H-1" 73 0 basechar 0
AnchorPoint: "N-4" 577 0 basechar 0
AnchorPoint: "N-3" 555 0 basechar 0
AnchorPoint: "N-2" 577 0 basechar 0
AnchorPoint: "N-1" 577 0 basechar 0
LayerCount: 2
Fore
SplineSet
916 1308 m 17
 1039 1275 1197 1177 1197 1017 c 1
 1197 771 861 669 615 554 c 1
 803 374 1107 402 1107 270 c 1
 1107 123 999 35 799 -7 c 1
 624 -50 449 -78 274 -78 c 0
 94 -78 l 9
 211 138 l 17
 409 138 664 173 847 228 c 1
 515 228 156 592 156 968 c 0
 156 988 159 1008 159 1028 c 1
 159 1088 185 1195 200 1254 c 9
 448 1254 l 17
 416 1178 382 1064 382 1000 c 0
 382 921 405 848 447 774 c 1
 450 768 462 766 479 766 c 0
 587 766 933 869 933 942 c 1
 933 1041 811 1080 811 1080 c 25
 916 1308 l 17
EndSplineSet
Validated: 1
EndChar

StartChar: qof
Encoding: 1511 1511 61
Width: 1370
VWidth: 2273
GlyphClass: 2
Flags: W
HStem: 828 268<362.864 566.722>
VStem: 647 155<-253 -203.574> 990 291<890.957 1108>
AnchorPoint: "D-1" 643 198 basechar 0
AnchorPoint: "N2r-1" 1053 0 basechar 0
AnchorPoint: "N2r-2" 1160 0 basechar 0
AnchorPoint: "N2r-3" 1204 0 basechar 0
AnchorPoint: "M2r-3" 1239 0 basechar 0
AnchorPoint: "M2r-2" 1104 0 basechar 0
AnchorPoint: "M2r-1" 1053 0 basechar 0
AnchorPoint: "M-1" 1008 0 basechar 0
AnchorPoint: "H-1" 58 0 basechar 0
AnchorPoint: "N-4" 1193 0 basechar 0
AnchorPoint: "N-3" 1115 0 basechar 0
AnchorPoint: "N-2" 1026 0 basechar 0
AnchorPoint: "N-1" 958 0 basechar 0
LayerCount: 2
Fore
SplineSet
412 774 m 1
 569 518 802 -6 802 -253 c 1
 647 -407 l 1
 563 125 337 296 165 606 c 1
 412 774 l 1
1228 1251 m 1
 1264 1199 1281 1139 1281 1077 c 0
 1281 993 1252 904 1203 821 c 1
 1104 651 947 600 803 524 c 1
 628 573 l 1
 807 688 914 820 986 962 c 1
 989 973 990 984 990 994 c 0
 990 1020 979 1039 950 1049 c 1
 740 971 575 828 356 828 c 1
 215 828 83 989 83 1070 c 0
 83 1089 87 1107 95 1121 c 1
 164 1210 282 1343 314 1392 c 1
 339 1286 311 1096 445 1096 c 0
 455 1096 465 1098 476 1098 c 1
 768 1098 959 1270 1139 1317 c 1
 1140 1317 1140 1317 1141 1317 c 0
 1161 1317 1219 1263 1228 1251 c 1
EndSplineSet
Validated: 1
EndChar

StartChar: resh
Encoding: 1512 1512 62
Width: 1203
VWidth: 2273
GlyphClass: 2
Flags: W
HStem: 804 231<322.471 497.008>
VStem: 903 197<179.133 784.633> 903 159<174 582.282>
AnchorPoint: "D-1" 508 0 basechar 0
AnchorPoint: "N2r-1" 863 0 basechar 0
AnchorPoint: "N2r-2" 826 0 basechar 0
AnchorPoint: "N2r-3" 686 0 basechar 0
AnchorPoint: "M2r-3" 738 0 basechar 0
AnchorPoint: "M2r-2" 821 0 basechar 0
AnchorPoint: "M2r-1" 902 0 basechar 0
AnchorPoint: "M-1" 991 0 basechar 0
AnchorPoint: "H-1" 47 0 basechar 0
AnchorPoint: "N-4" 798 -1 basechar 0
AnchorPoint: "N-3" 797 -1 basechar 0
AnchorPoint: "N-2" 897 -1 basechar 0
AnchorPoint: "N-1" 909 -1 basechar 0
LayerCount: 2
Fore
SplineSet
288 1221 m 1xc0
 288 1137 322 1035 374 1035 c 0
 395 1035 419 1041 447 1053 c 1
 606 1134 702 1181 795 1281 c 1
 897 1281 l 1
 1055 966 1100 770 1100 587 c 0xc0
 1100 488 1078 282 1062 174 c 9
 903 -8 l 17xa0
 903 216 l 1
 903 269 l 0
 903 601 899 799 752 1001 c 1
 665 872 519 804 339 804 c 1
 181 804 72 903 72 1038 c 1
 288 1221 l 1xc0
EndSplineSet
Validated: 1
EndChar

StartChar: shin
Encoding: 1513 1513 63
Width: 1908
VWidth: 2273
GlyphClass: 2
Flags: W
VStem: 489 244<311.446 621.325> 861 281<999.392 1218.32> 1524 291<766.844 1049.67>
AnchorPoint: "S-1" 810 0 basechar 0
AnchorPoint: "D-1" 1050 61 basechar 0
AnchorPoint: "N2r-1" 820 0 basechar 0
AnchorPoint: "N2r-2" 820 0 basechar 0
AnchorPoint: "N2r-3" 820 0 basechar 0
AnchorPoint: "M2r-3" 820 0 basechar 0
AnchorPoint: "M2r-2" 820 0 basechar 0
AnchorPoint: "M2r-1" 820 0 basechar 0
AnchorPoint: "M-1" 897 0 basechar 0
AnchorPoint: "H-1" 49 0 basechar 0
AnchorPoint: "N-4" 837 0 basechar 0
AnchorPoint: "N-3" 837 0 basechar 0
AnchorPoint: "N-2" 814 0 basechar 0
AnchorPoint: "N-1" 815 0 basechar 0
LayerCount: 2
Fore
SplineSet
1524 932 m 4
 1524 1025 1462 1092 1381 1092 c 5
 1632 1333 l 5
 1775 1238 1815 1063 1815 931 c 4
 1815 905 1814 881 1811 859 c 5
 1732 367 994 170 661 0 c 5
 489 -78 l 5
 458 -78 439 -75 401 -64 c 5
 458 120 489 252 489 391 c 4
 489 717 263 878 74 1054 c 5
 155 1147 217 1206 279 1264 c 5
 401 1151 556 982 632 869 c 5
 763 916 861 1021 861 1111 c 4
 861 1143 832 1189 805 1214 c 5
 1107 1276 l 5
 1128 1237 1142 1152 1142 1118 c 4
 1142 800 859 773 702 640 c 5
 719 547 733 530 733 456 c 4
 733 375 723 366 702 307 c 5
 1065 358 1470 709 1501 794 c 5
 1523 852 1524 907 1524 932 c 4
EndSplineSet
Validated: 1
EndChar

StartChar: tav
Encoding: 1514 1514 64
Width: 1436
VWidth: 2273
GlyphClass: 2
Flags: W
VStem: 564 232<355.005 744.247> 1057 180<759.164 955>
AnchorPoint: "D-1" 932 0 basechar 0
AnchorPoint: "N2r-1" 827 0 basechar 0
AnchorPoint: "N2r-2" 827 0 basechar 0
AnchorPoint: "N2r-3" 827 0 basechar 0
AnchorPoint: "M2r-3" 827 0 basechar 0
AnchorPoint: "M2r-2" 827 0 basechar 0
AnchorPoint: "M2r-1" 816 0 basechar 0
AnchorPoint: "M-1" 894 0 basechar 0
AnchorPoint: "H-1" 244 0 basechar 0
AnchorPoint: "R-1" 832 100 basechar 0
AnchorPoint: "N-4" 833 -2 basechar 0
AnchorPoint: "N-3" 854 -2 basechar 0
AnchorPoint: "N-2" 822 -2 basechar 0
AnchorPoint: "N-1" 854 -2 basechar 0
LayerCount: 2
Fore
SplineSet
546 1266 m 1
 589 1213 644 1134 655 1070 c 1
 833 1115 962 1235 1110 1324 c 1
 1161 1324 1208 1322 1237 1271 c 1
 1237 1000 1250 684 1331 472 c 1
 1363 399 1386 303 1386 249 c 1
 1176 50 l 1
 1113 316 1057 602 1057 955 c 9
 762 796 l 17
 785 703 796 620 796 547 c 0
 796 97 401 -5 176 -40 c 1
 148 -16 103 16 57 50 c 1
 315 143 564 243 564 536 c 0
 564 591 553 678 534 747 c 1
 390 729 l 1
 311 931 l 9
 435 978 l 17
 435 1048 360 1142 321 1197 c 1
 546 1266 l 1
EndSplineSet
Validated: 1
EndChar

StartChar: hebrewplus
Encoding: 64297 64297 69
Width: 1052
VWidth: 2273
Flags: W
HStem: 418 229<94 398 667 960>
VStem: 398 269<647 938>
LayerCount: 2
Fore
SplineSet
94 418 m 1
 94 647 l 1
 398 647 l 1
 398 938 l 1
 667 938 l 1
 667 647 l 1
 960 647 l 1
 960 418 l 1
 94 418 l 1
EndSplineSet
Validated: 1
EndChar

StartChar: exclam
Encoding: 33 33 70
Width: 420
VWidth: 2257
Flags: W
VStem: 109 199<45.6531 290.347 1493.03 1579.02> 140 127<620.45 923.38>
LayerCount: 2
Fore
SplineSet
109 136 m 0x80
 109 241 164 339 226 339 c 0
 275 339 308 277 308 200 c 0
 308 95 253 -3 190 -3 c 0
 141 -3 109 59 109 136 c 0x80
97 1424 m 1
 97 1429 l 2
 97 1434 97 1438 97 1443 c 0
 97 1558 224 1660 288 1660 c 0
 308 1660 317 1640 317 1606 c 1
 267 738 l 1
 247 610 210 605 171 605 c 0
 151 605 140 643 140 673 c 1x40
 97 1424 l 1
EndSplineSet
Validated: 1
EndChar

StartChar: quotedbl
Encoding: 34 34 71
Width: 597
VWidth: 2205
Flags: W
HStem: 1103 537
VStem: 93 169<1501.21 1620.12> 93 104<1099.04 1245.79> 322 169<1509.21 1628.12> 322 104<1106.25 1253.79>
LayerCount: 2
Fore
SplineSet
491 1610 m 1x90
 426 1153 l 2
 421 1122 388 1103 362 1103 c 0
 340 1103 322 1115 322 1142 c 2x88
 322 1577 l 2
 322 1620 382 1640 430 1640 c 0
 463 1640 491 1631 491 1614 c 2
 491 1610 l 1x90
262 1602 m 1xc0
 197 1145 l 2
 192 1115 160 1096 133 1096 c 0
 111 1096 93 1107 93 1134 c 2xa0
 93 1569 l 2
 93 1612 153 1632 201 1632 c 0
 234 1632 262 1623 262 1606 c 2
 262 1602 l 1xc0
EndSplineSet
Validated: 1
EndChar

StartChar: numbersign
Encoding: 35 35 72
Width: 979
VWidth: 2255
Flags: W
HStem: 411 218<114.645 252 426 478 653 792.992> 947 219<187.008 327 502 554 728 864.992>
VStem: 100 708<416.775 623.438> 172 708<952.775 1160.43>
LayerCount: 2
Fore
SplineSet
283 629 m 1xe0
 327 947 l 1
 208 947 l 2
 185 947 172 990 172 1038 c 0
 172 1099 193 1166 237 1166 c 2
 358 1166 l 1
 403 1513 l 2
 412 1577 450 1604 485 1604 c 0
 518 1604 548 1579 548 1532 c 0
 548 1526 548 1519 547 1513 c 2
 502 1166 l 1
 585 1166 l 1
 634 1519 l 2
 643 1583 682 1611 716 1611 c 0
 749 1611 779 1585 779 1539 c 0
 779 1532 779 1526 778 1519 c 2
 728 1165 l 1
 844 1165 l 2
 867 1165 880 1122 880 1074 c 0xd0
 880 1015 859 947 815 947 c 2
 697 947 l 1
 653 629 l 1
 772 629 l 2
 795 629 808 586 808 539 c 0
 808 478 787 411 743 411 c 2
 622 411 l 1
 577 64 l 2
 568 0 530 -27 495 -27 c 0
 462 -27 432 -2 432 44 c 0
 432 51 432 58 433 64 c 2
 478 411 l 1
 395 411 l 1
 346 58 l 2
 337 -6 298 -34 264 -34 c 0
 231 -34 201 -9 201 38 c 0
 201 44 201 51 202 58 c 2
 252 411 l 1
 136 411 l 2
 113 411 100 454 100 502 c 0
 100 562 120 629 165 629 c 2
 283 629 l 1xe0
509 629 m 1
 554 947 l 1
 471 947 l 1
 426 629 l 1
 509 629 l 1
EndSplineSet
Validated: 1
EndChar

StartChar: dollar
Encoding: 36 36 73
Width: 994
VWidth: 2256
Flags: W
HStem: 1310 340<618.661 761.597>
VStem: 110 201<1028.98 1290.47> 424 131<-174.365 14 265 628 982.551 1420 1642 1813.57> 671 221<347.5 694.5>
LayerCount: 2
Fore
SplineSet
671 416 m 0
 671 522 631 609 555 628 c 1
 555 209 l 1
 627 237 671 279 671 416 c 0
424 1420 m 1
 367 1420 311 1303 311 1185 c 0
 311 1106 352 982 424 982 c 1
 424 1420 l 1
308 454 m 1
 316 420 l 1
 351 273 393 265 424 265 c 1
 424 742 l 1
 377 765 226 822 173 883 c 0
 123 942 110 978 110 1057 c 0
 110 1349 275 1487 420 1586 c 1
 420 1705 l 2
 420 1784 489 1845 527 1845 c 0
 540 1845 550 1836 550 1819 c 2
 550 1642 l 1
 576 1647 598 1650 620 1650 c 0
 802 1650 814 1536 823 1501 c 0
 825 1492 825 1484 825 1475 c 0
 825 1392 731 1310 671 1310 c 0
 654 1310 640 1316 631 1331 c 2
 620 1350 l 2
 591 1405 590 1427 551 1458 c 1
 551 993 l 1
 653 948 726 909 810 851 c 1
 851 801 892 747 892 642 c 0
 892 408 684 165 563 70 c 1
 563 -68 l 2
 563 -142 488 -207 450 -207 c 0
 438 -207 430 -201 430 -185 c 2
 430 14 l 1
 422 11 411 10 398 10 c 0
 371 10 339 14 322 14 c 0
 257 14 98 76 98 220 c 0
 98 356 209 483 272 483 c 0
 288 483 301 474 308 454 c 1
EndSplineSet
Validated: 1
EndChar

StartChar: percent
Encoding: 37 37 74
Width: 1564
VWidth: 2256
Flags: W
HStem: 16 176<1132.75 1216.91> 539 176<343.754 428.789> 886 177<1117.29 1299.5> 1409 177<328.74 511>
VStem: 100 154<836.222 1144.17> 388 93<-17.0682 16> 531 145<893.076 1179.12> 888 155<313.222 625.076> 1078 93<1521 1556.32> 1319 146<376.628 656.027>
LayerCount: 2
Fore
SplineSet
1083 861 m 1
 1079 855 1070 853 1061 853 c 0
 1048 853 1033 860 1033 877 c 0
 1033 895 1046 913 1058 932 c 0
 1110 1023 1144 1063 1234 1063 c 0
 1365 1063 1465 818 1465 608 c 0
 1465 353 1273 16 1106 16 c 0
 1002 16 910 202 888 393 c 1
 888 411 l 2
 888 618 992 731 1050 786 c 0
 1058 793 1064 796 1068 796 c 0
 1077 796 1078 786 1078 773 c 0
 1078 768 1079 761 1078 755 c 1
 1052 674 1043 638 1043 556 c 2
 1043 545 l 2
 1043 363 1115 192 1210 192 c 2
 1217 192 l 2
 1284 192 1319 322 1319 381 c 0
 1319 569 1224 886 1128 886 c 0
 1110 886 1083 861 1083 861 c 1
295 1384 m 1
 291 1378 282 1376 273 1376 c 0
 259 1376 245 1383 245 1400 c 0
 245 1418 258 1436 269 1456 c 0
 322 1546 355 1586 445 1586 c 0
 577 1586 676 1341 676 1131 c 0
 676 876 485 539 318 539 c 0
 213 539 121 725 100 916 c 1
 100 935 l 2
 100 1141 212 1259 269 1314 c 0
 278 1322 284 1326 289 1326 c 0
 294 1326 296 1320 296 1312 c 0
 296 1302 293 1288 289 1278 c 1
 263 1197 254 1161 254 1079 c 2
 254 1068 l 2
 254 886 326 715 421 715 c 2
 429 715 l 2
 496 715 531 845 531 905 c 0
 531 1092 436 1409 339 1409 c 0
 322 1409 295 1384 295 1384 c 1
1120 1557 m 0
 1141 1557 1171 1531 1171 1481 c 0
 1171 1466 1168 1449 1160 1432 c 2
 481 16 l 2
 470 -9 454 -18 439 -18 c 0
 419 -18 388 8 388 59 c 0
 388 75 391 92 399 109 c 2
 1078 1521 l 2
 1090 1546 1105 1557 1120 1557 c 0
EndSplineSet
Validated: 1
EndChar

StartChar: ampersand
Encoding: 38 38 75
Width: 1283
VWidth: 2261
Flags: W
HStem: 15 205<425.835 633.376> 707 264<373.784 730> 752 231<941 1107.45> 1380 172<431.479 676.5>
VStem: 110 184<352.738 565.711 1050.75 1211.12> 730 202<383.766 707> 749 192<983 1092.09>
LayerCount: 2
Fore
SplineSet
555 707 m 2xdc
 367 707 294 663 294 497 c 0
 294 319 458 220 556 220 c 2
 607 220 l 1
 684 234 730 263 730 365 c 2
 730 707 l 1
 555 707 l 2xdc
303 1191 m 0
 303 979 455 971 562 971 c 0
 572 971 581 971 589 971 c 2
 749 971 l 1xda
 749 990 l 2
 749 1062 866 1199 918 1199 c 0
 931 1199 941 1187 941 1162 c 2
 941 983 l 1xba
 1159 983 l 2
 1183 983 1193 967 1193 943 c 0
 1193 877 1110 752 992 752 c 2
 932 752 l 1xbc
 932 687 l 2
 932 521 924 396 787 208 c 0
 676 57 578 15 480 15 c 0
 370 15 110 127 110 394 c 0
 110 526 184 634 272 732 c 2
 297 759 l 1
 265 785 l 1
 230 814 121 898 121 1066 c 0
 121 1270 335 1441 342 1446 c 2
 432 1508 l 1
 489 1536 534 1552 585 1552 c 0
 768 1552 770 1462 770 1442 c 2
 770 1426 l 2
 770 1340 691 1236 641 1236 c 0
 625 1236 613 1245 606 1268 c 1
 595 1291 l 2
 562 1363 522 1380 441 1380 c 0
 398 1380 303 1342 303 1191 c 0
EndSplineSet
Validated: 1
EndChar

StartChar: quotesingle
Encoding: 39 39 76
Width: 368
VWidth: 2205
Flags: W
HStem: 1098 537<111.12 208.754>
VStem: 107 168<1504.21 1623.26> 107 103<1101.07 1248.79>
LayerCount: 2
Fore
SplineSet
275 1605 m 1xc0
 210 1148 l 2
 205 1117 173 1098 146 1098 c 0
 125 1098 107 1109 107 1137 c 2xa0
 107 1572 l 2
 107 1615 167 1635 215 1635 c 0
 248 1635 275 1626 275 1608 c 2
 275 1605 l 1xc0
EndSplineSet
Validated: 1
EndChar

StartChar: parenleft
Encoding: 40 40 77
Width: 532
VWidth: 2259
Flags: W
VStem: 100 167<390.446 1218.09>
LayerCount: 2
Fore
SplineSet
267 855 m 0
 267 417 361 191 411 56 c 1
 419 35 l 2
 428 13 432 -12 432 -36 c 0
 432 -129 374 -223 321 -223 c 0
 299 -223 278 -207 262 -171 c 1
 249 -141 l 2
 121 171 100 411 100 700 c 0
 100 1056 134 1251 215 1500 c 1
 252 1630 339 1731 382 1731 c 0
 396 1731 405 1719 405 1693 c 0
 405 1678 402 1659 396 1633 c 1
 370 1554 l 2
 301 1344 267 1183 267 855 c 0
EndSplineSet
Validated: 1
EndChar

StartChar: parenright
Encoding: 41 41 78
Width: 532
VWidth: 2259
Flags: W
VStem: 265 167<285.226 1118.14>
LayerCount: 2
Fore
SplineSet
265 654 m 0
 265 1092 171 1317 121 1453 c 1
 113 1474 l 2
 104 1496 100 1521 100 1545 c 0
 100 1638 158 1731 211 1731 c 0
 233 1731 254 1716 270 1680 c 1
 283 1650 l 2
 411 1337 432 1098 432 808 c 0
 432 453 398 258 317 9 c 1
 280 -121 193 -223 150 -223 c 0
 136 -223 127 -210 127 -184 c 0
 127 -170 130 -150 136 -124 c 1
 162 -45 l 2
 231 165 265 326 265 654 c 0
EndSplineSet
Validated: 1
EndChar

StartChar: asterisk
Encoding: 42 42 79
Width: 671
VWidth: 2272
Flags: W
HStem: 818 224<435.561 528.975>
VStem: 164 207<516.973 633.732>
LayerCount: 2
Fore
SplineSet
243 1059 m 2
 243 1086 l 2
 243 1132 322 1164 372 1164 c 0
 396 1164 413 1156 413 1141 c 0
 413 1139 413 1138 413 1136 c 2
 400 1085 l 2
 385 1026 378 981 378 920 c 1
 446 1035 496 1042 498 1042 c 1
 525 1012 588 906 588 845 c 1
 588 829 584 818 575 818 c 2
 511 818 l 2
 479 818 462 812 433 798 c 1
 469 773 506 737 538 682 c 1
 549 661 l 2
 552 654 554 646 554 639 c 0
 554 579 477 491 441 491 c 0
 431 491 425 497 423 511 c 2
 413 564 l 2
 408 598 395 636 371 685 c 1
 371 622 360 566 336 505 c 2
 327 481 l 2
 323 471 315 468 304 468 c 0
 257 468 164 543 164 581 c 0
 164 586 166 591 170 595 c 2
 199 624 l 2
 234 659 258 689 281 738 c 1
 259 731 241 725 218 725 c 0
 178 725 171 728 142 737 c 1
 124 746 117 780 117 821 c 0
 117 899 142 1004 160 1004 c 0
 161 1004 163 1003 164 1002 c 2
 190 967 l 1
 222 928 247 903 284 884 c 1
 264 937 243 986 243 1059 c 2
EndSplineSet
Validated: 1
EndChar

StartChar: plus
Encoding: 43 43 80
Width: 812
VWidth: 2269
Flags: W
HStem: 636 190<107.484 346 471 708.516>
VStem: 346 124<267.109 636 826 1201.89>
LayerCount: 2
Fore
SplineSet
346 636 m 1
 141 636 l 2
 115 636 102 683 102 731 c 0
 102 777 115 826 141 826 c 2
 346 826 l 1
 346 1144 l 2
 346 1184 377 1204 408 1204 c 0
 439 1204 470 1184 470 1144 c 2
 470 826 l 1
 675 826 l 2
 701 826 714 777 714 731 c 0
 714 683 701 636 675 636 c 2
 471 636 l 1
 471 325 l 2
 471 285 439 265 408 265 c 0
 377 265 346 285 346 325 c 2
 346 636 l 1
EndSplineSet
Validated: 1
EndChar

StartChar: comma
Encoding: 44 44 81
Width: 438
VWidth: 2322
Flags: W
HStem: -141 509<172.16 194.461>
VStem: 170 161<21.2488 177.082>
LayerCount: 2
Fore
SplineSet
331 161 m 0
 331 18 160 -141 144 -141 c 0
 125 -141 97 -89 97 -58 c 0
 97 -48 100 -39 105 -34 c 1
 125 -18 l 2
 148 1 170 13 170 57 c 2
 170 64 l 2
 170 92 168 125 116 193 c 1
 98 215 l 2
 95 219 93 225 93 231 c 0
 93 277 162 368 218 368 c 0
 225 368 231 367 238 364 c 1
 288 318 331 279 331 161 c 0
EndSplineSet
Validated: 1
EndChar

StartChar: hyphen
Encoding: 45 45 82
Width: 812
VWidth: 2270
Flags: W
HStem: 638 190<110.484 711.516>
VStem: 105 612<638 828>
LayerCount: 2
Fore
SplineSet
144 638 m 2
 118 638 105 686 105 733 c 0
 105 781 118 828 144 828 c 2
 678 828 l 2
 704 828 717 781 717 733 c 0
 717 686 704 638 678 638 c 2
 144 638 l 2
EndSplineSet
Validated: 1
EndChar

StartChar: period
Encoding: 46 46 83
Width: 400
VWidth: 2318
Flags: W
HStem: 67 343<112.331 215.669>
VStem: 64 200<115.653 361.263>
LayerCount: 2
Fore
SplineSet
64 206 m 0
 64 312 119 410 182 410 c 0
 231 410 264 348 264 270 c 0
 264 165 209 67 146 67 c 0
 97 67 64 129 64 206 c 0
EndSplineSet
Validated: 1
EndChar

StartChar: slash
Encoding: 47 47 84
Width: 973
VWidth: 2254
Flags: W
LayerCount: 2
Fore
SplineSet
186 0 m 0
 140 0 100 80 100 136 c 0
 100 149 102 163 109 177 c 2
 764 1609 l 2
 774 1631 788 1640 805 1640 c 0
 849 1640 898 1574 898 1515 c 0
 898 1501 895 1487 889 1474 c 2
 234 42 l 2
 224 20 202 0 186 0 c 0
EndSplineSet
Validated: 1
EndChar

StartChar: colon
Encoding: 58 58 85
Width: 414
VWidth: 2282
Flags: W
HStem: 1090 20G<199.5 255.5>
VStem: 114 200<63.6531 308.347 819.898 1060.7>
LayerCount: 2
Fore
SplineSet
114 907 m 0
 114 1010 168 1110 231 1110 c 0
 280 1110 313 1048 313 971 c 0
 313 866 257 768 195 768 c 0
 146 768 114 825 114 907 c 0
114 154 m 0
 114 259 169 357 232 357 c 0
 281 357 314 295 314 218 c 0
 314 113 259 15 196 15 c 0
 147 15 114 77 114 154 c 0
EndSplineSet
Validated: 1
EndChar

StartChar: semicolon
Encoding: 59 59 86
Width: 464
VWidth: 2292
Flags: W
VStem: 116 200<834.653 1079.35> 186 174<-19.4052 205.589>
LayerCount: 2
Fore
SplineSet
116 925 m 0x80
 116 1030 171 1128 234 1128 c 0
 283 1128 316 1066 316 989 c 0
 316 884 260 786 198 786 c 0
 148 786 116 848 116 925 c 0x80
255 318 m 0
 272 318 286 313 299 301 c 1
 331 249 360 204 360 130 c 0
 360 2 285 -55 278 -60 c 0
 208 -116 151 -150 129 -150 c 0
 127 -150 125 -150 124 -149 c 0
 107 -143 96 -108 96 -81 c 0
 96 -69 102 -50 111 -44 c 1
 131 -38 l 1
 156 -29 174 -11 182 32 c 0
 182 34 186 36 186 38 c 0
 187 47 186 56 186 67 c 0x40
 186 91 179 126 152 184 c 2
 138 213 l 1
 137 217 136 220 136 224 c 0
 136 265 208 318 255 318 c 0
EndSplineSet
Validated: 1
EndChar

StartChar: less
Encoding: 60 60 87
Width: 953
VWidth: 2276
Flags: W
LayerCount: 2
Fore
SplineSet
315 834 m 1
 849 479 l 2
 868 467 879 402 879 345 c 0
 879 297 871 255 856 255 c 0
 854 255 851 254 849 255 c 2
 150 726 l 1
 136 737 129 783 129 829 c 0
 129 880 137 932 154 943 c 2
 852 1412 l 2
 854 1413 857 1414 859 1414 c 0
 875 1414 882 1372 882 1323 c 0
 882 1267 872 1202 852 1190 c 2
 315 834 l 1
EndSplineSet
Validated: 1
EndChar

StartChar: equal
Encoding: 61 61 88
Width: 1005
VWidth: 2276
Flags: W
HStem: 381 248<121.103 894.247> 833 247<117.103 890.247>
LayerCount: 2
Fore
SplineSet
160 381 m 2
 127 381 110 443 110 505 c 0
 110 567 127 629 160 629 c 2
 855 629 l 2
 889 629 905 567 905 505 c 0
 905 443 889 381 855 381 c 2
 160 381 l 2
156 833 m 2
 123 833 106 895 106 957 c 0
 106 1018 123 1080 156 1080 c 2
 851 1080 l 2
 885 1080 901 1018 901 957 c 0
 901 895 885 833 851 833 c 2
 156 833 l 2
EndSplineSet
Validated: 1
EndChar

StartChar: greater
Encoding: 62 62 89
Width: 953
VWidth: 2276
Flags: W
LayerCount: 2
Fore
SplineSet
712 776 m 1
 175 1132 l 2
 155 1144 145 1209 145 1265 c 0
 145 1314 153 1356 168 1356 c 0
 171 1356 173 1355 175 1354 c 2
 873 885 l 2
 890 874 898 822 898 771 c 0
 898 725 891 679 877 668 c 1
 178 197 l 2
 176 196 173 197 171 197 c 0
 156 197 148 239 148 287 c 0
 148 344 159 409 178 421 c 2
 712 776 l 1
EndSplineSet
Validated: 1
EndChar

StartChar: question
Encoding: 63 63 90
Width: 902
VWidth: 2255
Flags: W
HStem: 1445 227<317.504 459.455>
VStem: 286 200<51.6531 296.347> 585 217<975.027 1266.88>
LayerCount: 2
Fore
SplineSet
286 142 m 0
 286 247 341 345 404 345 c 0
 453 345 486 283 486 206 c 0
 486 101 431 3 368 3 c 0
 319 3 286 65 286 142 c 0
364 1445 m 0
 226 1445 232 1341 191 1341 c 0
 172 1341 146 1358 146 1384 c 0
 146 1392 148 1399 153 1408 c 2
 167 1434 l 2
 242 1565 314 1672 452 1672 c 3
 632 1672 802 1493 802 1195 c 0
 802 845 573 837 462 538 c 1
 450 505 l 2
 445 493 439 489 433 489 c 0
 414 489 390 532 390 567 c 0
 390 574 391 581 393 587 c 2
 401 608 l 2
 467 799 585 808 585 990 c 0
 585 1262 483 1445 364 1445 c 0
EndSplineSet
Validated: 1
EndChar

StartChar: at
Encoding: 64 64 91
Width: 1298
VWidth: 2253
Flags: W
HStem: -37 183<507.443 868.285> 307 210<530.806 663.091 793.5 941.849> 1052 209<585.305 739.181> 1464 184<503.139 847.124>
VStem: 100 136<488.18 1117.25> 346 145<556.79 935.927> 842 119<1123.5 1243.24> 1079 119<651.305 1187.97>
LayerCount: 2
Fore
SplineSet
491 719 m 0
 491 610 532 517 605 517 c 0
 708 517 775 703 775 859 c 0
 775 971 733 1052 670 1052 c 0
 568 1052 491 897 491 719 c 0
687 146 m 0
 960 146 965 336 1064 336 c 0
 1096 336 1121 312 1121 288 c 0
 1121 282 1120 277 1117 271 c 2
 1093 228 l 2
 1027 108 884 -37 679 -37 c 0
 526 -37 383 31 265 204 c 0
 152 368 100 570 100 805 c 0
 100 1280 359 1648 671 1648 c 0
 953 1648 1198 1425 1198 982 c 0
 1198 763 1155 595 1069 480 c 0
 1001 388 915 307 811 307 c 0
 776 307 727 334 727 429 c 1
 694 377 635 307 571 307 c 0
 447 307 346 478 346 691 c 0
 346 1004 485 1261 658 1261 c 0
 743 1261 792 1201 825 1113 c 1
 842 1180 l 2
 854 1228 880 1247 906 1247 c 0
 935 1247 961 1223 961 1190 c 0
 961 1186 961 1183 961 1180 c 2
 864 559 l 1
 864 529 872 504 902 504 c 0
 977 504 1079 643 1079 911 c 0
 1079 1267 913 1464 670 1464 c 0
 388 1464 236 1166 236 801 c 0
 236 408 409 146 687 146 c 0
EndSplineSet
Validated: 1
EndChar

StartChar: bracketleft
Encoding: 91 91 92
Width: 527
VWidth: 2266
Flags: W
HStem: -403 140<293 453.887> 1521 139<293 444.269>
LayerCount: 2
Fore
SplineSet
430 -403 m 2
 178 -403 l 2
 149 -403 119 -373 119 -336 c 2
 119 1587 l 2
 119 1627 140 1660 160 1660 c 2
 420 1660 l 2
 438 1660 446 1625 446 1591 c 0
 446 1556 437 1521 420 1521 c 2
 293 1521 l 1
 293 -263 l 1
 430 -263 l 2
 447 -263 456 -297 456 -331 c 0
 456 -366 446 -403 430 -403 c 2
EndSplineSet
Validated: 1
EndChar

StartChar: asciitilde
Encoding: 126 126 93
Width: 862
VWidth: 2176
Flags: W
HStem: 927 201<551.629 728.792> 1079 201<265.02 436.127>
VStem: 754 74<1157.04 1216>
LayerCount: 2
Fore
SplineSet
339 1280 m 0x60
 465 1280 562 1128 653 1128 c 0
 687 1128 711 1129 754 1216 c 2
 775 1259 l 2
 779 1270 784 1275 789 1275 c 0
 809 1275 828 1204 828 1143 c 0
 828 1123 826 1105 821 1090 c 0
 771 951 727 927 651 927 c 0xa0
 527 927 427 1079 337 1079 c 0
 304 1079 283 1078 241 991 c 2
 221 949 l 2
 218 942 214 939 210 939 c 0
 191 939 166 1011 166 1070 c 0
 166 1087 168 1102 172 1116 c 0
 223 1257 262 1280 339 1280 c 0x60
EndSplineSet
Validated: 1
EndChar

StartChar: meteg
Encoding: 1469 1469 94
Width: 0
VWidth: 2273
GlyphClass: 4
Flags: W
HStem: -534 399<-74 74>
VStem: -74 148<-534 -135>
AnchorPoint: "M2r-3" -330 0 mark 0
AnchorPoint: "M2r-2" -280 0 mark 0
AnchorPoint: "M2r-1" -190 0 mark 0
AnchorPoint: "TM-1" 57 0 mark 0
AnchorPoint: "M-1" 0 0 mark 0
AnchorPoint: "MT-1" -133 0 basemark 0
LayerCount: 2
Fore
SplineSet
74 -534 m 1
 -74 -534 l 1
 -74 -135 l 1
 74 -135 l 1
 74 -534 l 1
EndSplineSet
Validated: 1
LCarets2: 1 0 
Ligature2: "'ccmp' remove Taam after Meteg subtable" meteg dehi
Ligature2: "'ccmp' remove Taam after Meteg subtable" meteg yetiv
Ligature2: "'ccmp' remove Taam after Meteg subtable" meteg yerahbenyomo
Ligature2: "'ccmp' remove Taam after Meteg subtable" meteg darga
Ligature2: "'ccmp' remove Taam after Meteg subtable" meteg merkhakefula
Ligature2: "'ccmp' remove Taam after Meteg subtable" meteg merkha
Ligature2: "'ccmp' remove Taam after Meteg subtable" meteg mahapakh
Ligature2: "'ccmp' remove Taam after Meteg subtable" meteg munah
Ligature2: "'ccmp' remove Taam after Meteg subtable" meteg tevir
Ligature2: "'ccmp' remove Taam after Meteg subtable" meteg tipeha
Ligature2: "'ccmp' remove Taam after Meteg subtable" meteg etnahtahafukh
Ligature2: "'ccmp' remove Taam after Meteg subtable" meteg etnahta
Ligature2: "'ccmp' remove Taam after Meteg subtable" meteg lowerdot
Ligature2: "'ccmp' Remove Taam before meteg subtable" tevir meteg
Ligature2: "'ccmp' Remove Taam before meteg subtable" lowerdot meteg
Ligature2: "'ccmp' Remove Taam before meteg subtable" dehi meteg
Ligature2: "'ccmp' Remove Taam before meteg subtable" yerahbenyomo meteg
Ligature2: "'ccmp' Remove Taam before meteg subtable" darga meteg
Ligature2: "'ccmp' Remove Taam before meteg subtable" merkhakefula meteg
Ligature2: "'ccmp' Remove Taam before meteg subtable" merkha meteg
Ligature2: "'ccmp' Remove Taam before meteg subtable" mahapakh meteg
Ligature2: "'ccmp' Remove Taam before meteg subtable" munah meteg
Ligature2: "'ccmp' Remove Taam before meteg subtable" etnahtahafukh
Ligature2: "'ccmp' Remove Taam before meteg subtable" yetiv meteg
Ligature2: "'ccmp' Remove Taam before meteg subtable" tipeha meteg
Ligature2: "'ccmp' Remove Taam before meteg subtable" etnahta meteg
EndChar

StartChar: qamatskatan
Encoding: 1479 1479 95
Width: 0
VWidth: 2273
GlyphClass: 4
Flags: W
HStem: -307 167<-199.888 -76 90 198.61>
VStem: -202 403<-305.734 -140> -76 166<-562.744 -307>
AnchorPoint: "N2r-2" -140 -2 mark 0
AnchorPoint: "TM-1" -282.3 -2 basemark 0
AnchorPoint: "MT-1" 220.7 -2 mark 0
AnchorPoint: "N-2" -80 -2 mark 0
LayerCount: 2
Fore
SplineSet
-193 -140 m 1xc0
 193 -140 l 1
 198 -164 201 -189 201 -218 c 0xc0
 201 -245 198 -274 193 -307 c 1
 90 -307 l 1
 90 -557 l 1
 59 -562 29 -565 0 -565 c 0
 -27 -565 -52 -562 -76 -557 c 1
 -76 -307 l 1xa0
 -193 -307 l 1
 -199 -280 -202 -253 -202 -226 c 0
 -202 -197 -199 -169 -193 -140 c 1xc0
EndSplineSet
Validated: 1
EndChar

StartChar: hatafsegolmidmeteg
Encoding: 65538 -1 97
Width: 0
VWidth: 2273
GlyphClass: 4
Flags: W
HStem: -551 198<-272.23 -109.086 217.77 381.178> -336 197<-380.914 -217.77 -158.178 4.44287 218.244 380.598>
VStem: -398 197<-318.914 -155.77> -289 197<-534.494 -370.402> -175 197<-319.693 -154.086> 40 135<-538 -153> 201 197<-533.598 -369.77 -319.339 -157.086>
AnchorPoint: "N-4" -70 0 mark 0
LayerCount: 2
Fore
SplineSet
175 -538 m 1xc6
 40 -538 l 1
 40 -153 l 1
 175 -153 l 1
 175 -538 l 1xc6
201 -451 m 0
 201 -397 245 -353 299 -353 c 0
 354 -353 398 -397 398 -451 c 0
 398 -506 354 -551 299 -551 c 0
 244 -551 201 -505 201 -451 c 0
201 -239 m 0
 201 -185 243 -140 298 -140 c 0
 353 -140 398 -184 398 -239 c 0
 398 -295 352 -336 298 -336 c 0
 247 -336 201 -297 201 -239 c 0
-175 -236 m 0xce
 -175 -181 -131 -137 -76 -137 c 0
 -21 -137 22 -182 22 -236 c 0
 22 -289 -20 -336 -76 -336 c 0
 -132 -336 -175 -290 -175 -236 c 0xce
-289 -453 m 0xd6
 -289 -399 -246 -353 -191 -353 c 0
 -136 -353 -92 -398 -92 -453 c 0
 -92 -508 -137 -551 -191 -551 c 0
 -245 -551 -289 -508 -289 -453 c 0xd6
-398 -237 m 0xe6
 -398 -182 -353 -139 -299 -139 c 0
 -245 -139 -201 -183 -201 -237 c 0
 -201 -291 -244 -336 -299 -336 c 0
 -354 -336 -398 -292 -398 -237 c 0xe6
EndSplineSet
Validated: 1
Ligature2: "'ccmp' Hebrew HatafMeteg subtable" hatafsegol zerojoin meteg
Ligature2: "'ccmp' Hebrew HatafMeteg subtable" hatafsegol .null meteg
Ligature2: "'ccmp' Hebrew HatafMeteg subtable" hatafsegol CGJ meteg
LCarets2: 2 0 0 
EndChar

StartChar: hatafpatahmidmeteg
Encoding: 65539 -1 98
Width: 0
VWidth: 2273
GlyphClass: 4
Flags: W
HStem: -546 197<167.77 331.178> -334 197<167.322 328.914> -301 161<-348 -22>
VStem: -348 326<-301 -140> 0 133<-528 -143> 151 197<-529.23 -365.822 -315.546 -154.836>
AnchorPoint: "N-4" -70 0 mark 0
LayerCount: 2
Fore
SplineSet
133 -528 m 1x9c
 0 -528 l 1
 0 -143 l 1
 133 -143 l 1
 133 -528 l 1x9c
151 -448 m 0
 151 -393 195 -349 249 -349 c 0
 304 -349 348 -393 348 -448 c 0
 348 -502 304 -546 249 -546 c 0
 195 -546 151 -502 151 -448 c 0
151 -235 m 0
 151 -183 189 -137 247 -137 c 0
 301 -137 346 -180 346 -235 c 0
 346 -289 302 -334 247 -334 c 0xdc
 191 -334 151 -287 151 -235 c 0
-22 -301 m 1xbc
 -348 -301 l 1
 -348 -140 l 1
 -22 -140 l 1
 -22 -301 l 1xbc
EndSplineSet
Validated: 1
Ligature2: "'ccmp' Hebrew HatafMeteg subtable" hatafpatah zerojoin meteg
Ligature2: "'ccmp' Hebrew HatafMeteg subtable" hatafpatah .null meteg
Ligature2: "'ccmp' Hebrew HatafMeteg subtable" hatafqamats CGJ meteg
LCarets2: 2 0 0 
EndChar

StartChar: paseq
Encoding: 1472 1472 141
Width: 418
VWidth: 2516
Flags: W
VStem: 100 218<38.8931 1131.77>
LayerCount: 2
Fore
SplineSet
100 47 m 1
 100 1119 l 1
 135 1134 169 1140 202 1140 c 0
 242 1140 280 1132 318 1119 c 1
 318 47 l 1
 277 38 238 33 199 33 c 0
 165 33 132 37 100 47 c 1
EndSplineSet
Validated: 1
EndChar

StartChar: newsheqel
Encoding: 8362 8362 144
Width: 1902
VWidth: 2273
Flags: W
HStem: 1050 255<302.963 864.607>
VStem: -104 248<1247.04 1437> -14 217<195.569 976.681> 509 244<261.729 645.647> 837 231<469.959 1002> 1544 291<719.114 1001.67>
LayerCount: 2
Fore
SplineSet
195 962 m 1xdc
 202 850 203 785 203 679 c 0
 203 656 203 630 203 602 c 0
 203 463 196 281 181 141 c 9
 -67 141 l 17
 -29 377 -14 572 -14 741 c 0xbc
 -14 1065 -53 1204 -104 1437 c 1
 144 1437 l 1
 158 1362 155 1313 165 1238 c 1
 247 1279 443 1305 559 1305 c 0
 662 1305 880 1288 944 1241 c 1
 960 1281 991 1352 1008 1392 c 1
 1214 1236 l 1
 1127 1086 1068 915 1068 712 c 0
 1068 538 1072 573 1111 465 c 9
 905 346 l 17
 847 522 837 468 837 671 c 0
 837 687 837 702 837 716 c 0
 837 831 839 906 867 1014 c 1
 800 1044 610 1050 544 1050 c 0
 451 1050 288 1011 195 962 c 1xdc
652 821 m 1
 730 696 753 482 753 408 c 0
 753 327 743 318 722 259 c 1
 1085 310 1490 661 1521 746 c 1
 1543 804 1544 859 1544 884 c 0
 1544 977 1482 1044 1401 1044 c 1
 1652 1285 l 1
 1795 1190 1835 1015 1835 883 c 0
 1835 857 1834 833 1831 811 c 1
 1752 319 1059 170 726 0 c 1
 554 -78 l 1
 523 -78 504 -75 466 -64 c 1
 504 59 509 138 509 218 c 0
 509 257 509 297 509 343 c 0
 509 669 439 753 276 759 c 1
 357 852 419 911 481 969 c 1
 574 963 643 840 652 821 c 1
EndSplineSet
Validated: 1
EndChar

StartChar: A
Encoding: 65 65 145
Width: 1384
Flags: W
HStem: 0 254<1077.5 1254.5> 25 210<203.186 425.636>
VStem: 541 138<1040.57 1244>
LayerCount: 2
Fore
SplineSet
541 1420 m 1xa0
 508 1420 464 1389 431 1362 c 1
 459 1432 614 1638 674 1638 c 1
 953 1638 887 792 1211 255 c 1
 1217 254 1222 254 1227 254 c 0
 1282 254 1320 301 1364 333 c 1
 1328 224 1157 0 1103 0 c 1xa0
 1052 0 1047 11 995 87 c 1
 871 385 727 914 679 1244 c 1
 679 1028 500 625 199 244 c 1
 214 237 235 235 259 235 c 0x60
 321 235 404 252 466 252 c 0
 504 252 535 245 547 224 c 1
 427 0 l 1xa0
 398 19 363 25 321 25 c 0x60
 239 25 131 0 -5 0 c 1
 -5 325 541 502 541 1420 c 1xa0
EndSplineSet
Validated: 1
EndChar

StartChar: B
Encoding: 66 66 146
Width: 1313
Flags: W
HStem: 0 188<508.952 828.677> 1506 198<552.265 791.812>
VStem: 327 123<1052.91 1447> 341 164<468.601 804.415 873 1308.56> 765 192<1280.5 1575> 1095 195<411.167 677.035>
LayerCount: 2
Fore
SplineSet
510 774 m 1xdc
 510 578 505 410 505 209 c 1
 599 209 688 188 787 188 c 0
 860 188 939 200 1029 240 c 1
 1076 337 1095 421 1095 495 c 0
 1095 738 886 877 709 989 c 1
 650 923 584 826 510 774 c 1xdc
438 1596 m 1
 528 1651 624 1704 711 1704 c 1
 870 1704 957 1614 957 1536 c 1
 957 1447 912 1338 830 1225 c 1
 1050 1137 1290 916 1290 606 c 1
 1290 270 897 0 615 0 c 1
 497 0 396 19 284 19 c 0
 216 19 143 12 60 -12 c 9
 195 162 l 17
 232 180 263 192 293 200 c 1
 333 487 341 726 341 962 c 0xdc
 341 1112 327 1289 327 1447 c 1xec
 240 1413 156 1367 112 1328 c 1
 155 1391 240 1443 330 1515 c 1
 330 1581 l 9
 459 1709 l 17
 438 1596 l 1
450 1479 m 1xec
 450 1277 507 1075 507 873 c 1
 638 1058 765 1211 765 1350 c 1
 765 1441 686 1506 591 1506 c 1
 533 1505 493 1484 450 1479 c 1xec
EndSplineSet
Validated: 1
EndChar

StartChar: C
Encoding: 67 67 147
Width: 1246
Flags: W
HStem: 0 189<415.859 749.189> 1479 168<680.805 849.349>
VStem: 85 198<515.098 863.698>
LayerCount: 2
Fore
SplineSet
976 1149 m 17
 973 1398 846 1479 670 1479 c 3
 421 1479 283 1080 283 762 c 27
 283 476 453 189 739 189 c 17
 911 190 1000 285 1114 426 c 9
 1171 462 l 17
 1085 264 811 0 565 0 c 9
 274 0 85 279 85 570 c 19
 85 1080 506 1647 843 1647 c 0
 847 1647 852 1647 856 1647 c 1
 1018 1645 1150 1605 1159 1356 c 9
 976 1149 l 17
EndSplineSet
Validated: 1
EndChar

StartChar: D
Encoding: 68 68 148
Width: 1403
Flags: W
HStem: -19 193<499.474 804.782> 1460 160<443.285 698.767>
VStem: 331 109<1028.72 1428> 1126 195<534.057 974.243>
LayerCount: 2
Fore
SplineSet
554 -19 m 1
 436 -19 386 0 274 0 c 0
 206 0 133 -7 50 -31 c 9
 185 143 l 17
 222 161 253 173 283 181 c 1
 323 468 331 707 331 943 c 0
 331 1093 317 1270 317 1428 c 1
 230 1394 146 1348 102 1309 c 1
 145 1372 230 1424 320 1496 c 1
 320 1562 l 9
 449 1690 l 17
 428 1577 l 1
 504 1607 672 1620 757 1620 c 1
 1015 1620 1321 1212 1321 771 c 1
 1321 504 1093 -19 554 -19 c 1
440 1460 m 1
 440 1258 496 411 496 210 c 1
 570 182 651 174 730 174 c 0
 816 174 900 183 970 183 c 1
 1042 270 1126 447 1126 624 c 3
 1126 1101 919 1460 440 1460 c 1
EndSplineSet
Validated: 1
EndChar

StartChar: E
Encoding: 69 69 149
Width: 1208
Flags: W
HStem: 5 169<497.087 990.612> 790 167<472.594 750.699> 1410 170<557.504 942.221> 1468 174<446 647.885>
VStem: 317 153<336.304 815 982.967 1453.16> 334 112<1004.99 1454>
LayerCount: 2
Fore
SplineSet
444 1642 m 1xd4
 557 1642 637 1580 788 1580 c 0
 860 1580 948 1594 1063 1635 c 9
 943 1449 l 17
 879 1420 823 1410 772 1410 c 0xe4
 653 1410 558 1465 446 1468 c 1xd4
 448 1366 451 1188 460 996 c 1
 530 987 548 957 629 957 c 0
 677 957 749 968 868 1001 c 9
 748 815 l 17
 674 797 630 790 597 790 c 0
 546 790 527 806 470 815 c 1
 482 547 495 310 495 213 c 1
 579 202 666 174 786 174 c 0
 874 174 980 189 1114 237 c 9
 994 51 l 17
 918 16 844 5 774 5 c 0
 649 5 534 40 431 43 c 1
 251 43 249 21 85 -35 c 9
 191 153 l 17
 216 172 251 185 284 195 c 1
 303 326 308 556 317 826 c 1xd8
 278 826 253 815 168 757 c 1
 198 818 225 877 274 945 c 1
 292 958 313 973 329 981 c 1
 332 1104 334 1233 334 1343 c 0
 334 1370 334 1395 334 1419 c 0
 334 1431 334 1443 334 1454 c 1
 278 1442 232 1421 133 1387 c 9
 239 1575 l 17
 262 1593 295 1605 327 1611 c 1
 325 1620 l 9
 454 1748 l 17
 448 1714 445 1678 444 1642 c 1xd4
EndSplineSet
Validated: 1
EndChar

StartChar: F
Encoding: 70 70 150
Width: 1068
Flags: W
HStem: -68 171<433 605.5> 1218 150<743.242 888.872> 1294 146<513.949 670.084> 1723 182<469.491 950.613> 1766 192<401 692.723>
VStem: 326 131<1268.17 1290.78 1348 1645.37> 337 64<1479.97 1766> 357 14<2009.51 2057.39>
LayerCount: 2
Fore
SplineSet
724 158 m 1xa4
 724 158 643 44 574 -31 c 1
 554 -58 515 -68 470 -68 c 0
 396 -68 309 -41 274 -19 c 0
 217 17 191 45 158 45 c 1
 110 39 131 49 47 -12 c 1
 247 206 l 1
 254 213 273 212 289 212 c 1
 308 343 317 963 326 1233 c 1xa4
 287 1233 264 1194 179 1136 c 1
 201 1167 224 1204 247 1244 c 1
 265 1257 318 1294 334 1302 c 1
 337 1425 337 1545 337 1655 c 0
 337 1682 337 1707 337 1731 c 0
 337 1743 337 1755 337 1766 c 1xaa
 281 1754 235 1733 136 1699 c 9
 263 1900 l 17
 286 1918 294 1928 326 1934 c 1xac
 323 1943 l 9
 357 2058 l 17
 359 2046 365 1974 371 1958 c 1xa9
 484 1958 661 1905 812 1905 c 1
 814 1905 817 1905 820 1905 c 0
 888 1905 1085 1959 1087 1960 c 9
 967 1774 l 17
 903 1745 854 1723 803 1723 c 0x91
 684 1723 513 1763 401 1766 c 1
 403 1664 434 1540 443 1348 c 1
 529 1406 559 1439 657 1440 c 1xaa
 753 1428 784 1368 873 1368 c 27xc2
 935 1368 960 1412 1015 1440 c 25xa2
 913 1276 l 17
 859 1246 813 1218 763 1218 c 0xc2
 734 1218 704 1227 671 1250 c 1
 661 1257 594 1294 531 1294 c 0
 504 1294 477 1287 457 1268 c 1
 492 149 l 1
 523 118 566 103 586 103 c 0
 625 103 675 124 724 158 c 1xa4
EndSplineSet
Validated: 1
EndChar

StartChar: G
Encoding: 71 71 151
Width: 1429
Flags: W
HStem: 0 189<487 817.871> 714 202<866.605 1063.56> 1479 168<657.116 846.186>
VStem: 81 198<424.5 883.358> 1247 170<330 714>
LayerCount: 2
Fore
SplineSet
1247 436 m 1
 1247 578 1062 714 883 714 c 9
 785 714 750 637 665 588 c 25
 849 866 l 25
 919 886 956 916 1029 916 c 17
 1222 916 1417 814 1417 614 c 1
 1417 244 857 0 561 0 c 1
 413 0 81 279 81 570 c 19
 81 1080 443 1647 839 1647 c 0
 843 1647 848 1647 852 1647 c 1
 1014 1647 1155 1605 1155 1356 c 9
 972 1149 l 17
 972 1398 842 1479 666 1479 c 3
 417 1479 279 1080 279 762 c 27
 279 476 613 189 735 189 c 1
 907 189 1247 224 1247 436 c 1
EndSplineSet
Validated: 1
EndChar

StartChar: H
Encoding: 72 72 152
Width: 1801
Flags: W
HStem: -20 202<1270 1541.5> 933 217<814.943 1201> 956 205<525 730.898> 984 204<529.262 1111.74>
VStem: 293 223<279 786.024> 350 166<446.235 912> 379 147<1164.1 1502.07> 1190 187<262.872 933>
LayerCount: 2
Fore
SplineSet
518 212 m 1xa9
 554 195 583 176 624 176 c 0
 661 176 702 187 754 214 c 9
 550 -44 l 17
 465 -43 405 -24 358 0 c 1
 329 15 304 32 281 46 c 1
 249 65 220 80 185 80 c 0
 152 80 114 66 64 31 c 9
 274 280 l 17
 284 280 284 280 293 279 c 1xa9
 306 485 330 709 350 912 c 1xa5
 295 895 237 877 188 860 c 9
 286 1084 l 17
 303 1097 334 1109 368 1120 c 1
 375 1206 379 1290 379 1358 c 0
 379 1414 376 1463 370 1504 c 1
 360 1512 349 1516 338 1516 c 0
 280 1516 212 1418 150 1380 c 1
 241 1496 370 1709 486 1736 c 1
 518 1736 526 1574 526 1340 c 0
 526 1285 526 1222 525 1161 c 1xa3
 616 1178 702 1188 716 1188 c 0
 717 1188 718 1188 718 1188 c 1
 729 1188 739 1188 749 1188 c 0x93
 924 1188 1069 1151 1231 1150 c 1xc3
 1244 1219 1261 1289 1282 1360 c 9
 1570 1664 l 17
 1593 1674 1617 1677 1640 1677 c 0
 1698 1677 1756 1653 1814 1630 c 9
 1618 1432 l 17
 1597 1451 1565 1471 1526 1471 c 0
 1507 1471 1485 1466 1462 1452 c 1
 1434 1352 1414 1253 1400 1156 c 1
 1448 1165 1504 1185 1558 1204 c 9
 1434 956 l 17xa3
 1418 950 1397 940 1380 936 c 1
 1378 891 1377 847 1377 802 c 0
 1377 613 1396 427 1422 244 c 1
 1448 200 1474 182 1500 182 c 0
 1569 182 1637 300 1706 352 c 1
 1658 260 1514 -20 1294 -20 c 1
 1246 -20 1230 100 1214 188 c 1
 1202 346 1190 507 1190 674 c 0
 1190 759 1193 845 1201 933 c 1xc3
 1030 941 841 982 734 984 c 1x93
 668 984 591 971 522 956 c 1
 519 785 516 605 516 434 c 0
 516 357 517 283 518 212 c 1xa9
EndSplineSet
Validated: 1
EndChar

StartChar: I
Encoding: 73 73 153
Width: 788
Flags: W
VStem: 287 183<264 779.75> 345 119<779.75 1384.07>
LayerCount: 2
Fore
SplineSet
470 185 m 1x80
 494 173 524 156 560 156 c 0
 597 156 638 167 690 194 c 9
 486 -64 l 17
 274 -62 272 50 173 50 c 0
 140 50 102 35 52 0 c 9
 287 264 l 17x80
 304 622 345 956 345 1240 c 0
 345 1296 342 1345 336 1386 c 1
 326 1394 315 1398 304 1398 c 0
 246 1398 178 1300 116 1262 c 1
 217 1377 299 1595 424 1614 c 1
 456 1614 464 1452 464 1218 c 0x40
 464 962 466 784 466 476 c 0
 466 374 467 276 470 185 c 1x80
EndSplineSet
Validated: 1
EndChar

StartChar: J
Encoding: 74 74 154
Width: 1155
Flags: W
HStem: -174 216<329.871 443.952> 1320 220<801.876 953> 1422 200<565 652.499>
VStem: 47 200<118.741 293.823> 590 200<128.255 181.999 182 561.364> 674 99<935.738 1343>
LayerCount: 2
Fore
SplineSet
773 1343 m 1xd4
 773 1093 785 773 785 473 c 0
 785 371 789 273 789 182 c 1
 790 182 790 181 790 180 c 0
 790 150 446 -144 446 -144 c 9
 402 -156 378 -174 332 -174 c 17
 185 -174 47 -116 47 80 c 0
 47 85 47 89 47 93 c 1
 47 339 192 438 326 564 c 1
 271 430 247 329 247 254 c 0
 247 70 391 42 562 42 c 0
 571 42 581 42 590 42 c 1xd8
 590 390 674 1077 674 1371 c 1
 593 1397 526 1422 476 1422 c 0
 443 1422 405 1408 355 1373 c 9
 565 1622 l 17xb4
 734 1622 911 1540 1027 1540 c 0
 1064 1540 1105 1551 1157 1578 c 9
 953 1320 l 17
 889 1320 828 1330 773 1343 c 1xd4
EndSplineSet
Validated: 1
EndChar

StartChar: K
Encoding: 75 75 155
Width: 1594
Flags: W
HStem: 0 241<1110 1343>
VStem: 289 183<264 773.411> 353 114<889.095 1438.07>
LayerCount: 2
Fore
SplineSet
467 784 m 1xa0
 468 693 468 594 468 476 c 0
 468 374 469 276 472 185 c 1
 496 173 526 156 562 156 c 0
 599 156 640 167 692 194 c 9
 488 -64 l 17
 276 -62 274 50 175 50 c 0
 142 50 104 35 54 0 c 9
 289 264 l 17xc0
 306 622 353 1010 353 1294 c 0xa0
 353 1350 350 1399 344 1440 c 1
 334 1448 323 1452 312 1452 c 0
 254 1452 186 1354 124 1316 c 1
 225 1431 307 1649 432 1668 c 1
 464 1668 472 1506 472 1272 c 0xc0
 472 1161 467 1019 467 914 c 0
 467 905 467 896 467 888 c 1
 739 1076 927 1245 1122 1415 c 1
 1083 1440 1050 1460 1009 1460 c 0
 976 1460 938 1446 888 1411 c 9
 1098 1660 l 17
 1267 1660 1332 1556 1448 1556 c 0
 1485 1556 1526 1567 1578 1594 c 9
 1374 1336 l 17
 1280 1337 1217 1361 1168 1388 c 1
 1051 1244 923 1110 774 998 c 1
 898 723 1144 330 1254 258 c 1
 1268 246 1284 241 1300 241 c 0
 1386 241 1491 387 1548 438 c 9
 1562 422 l 17
 1434 281 1282 0 1176 0 c 1
 1044 0 747 543 548 834 c 9
 467 784 l 1xa0
EndSplineSet
Validated: 1
EndChar

StartChar: L
Encoding: 76 76 156
Width: 1172
Flags: W
HStem: 16 200<607.91 1038.25> 69 215<472 684.896>
VStem: 343 119<1293.99 1720.07>
LayerCount: 2
Fore
SplineSet
472 284 m 1x60
 584 283 696 216 872 216 c 0
 952 216 1044 229 1155 269 c 9
 1037 48 l 17
 976 24 915 16 857 16 c 0xa0
 714 16 581 67 467 69 c 1
 287 69 232 42 68 -14 c 9
 172 209 l 17
 198 229 235 248 276 258 c 1
 343 1576 l 1
 343 1632 340 1681 334 1722 c 1
 324 1730 313 1734 302 1734 c 0
 244 1734 176 1636 114 1598 c 1
 215 1713 297 1931 422 1950 c 1
 454 1950 462 1788 462 1554 c 0
 462 1298 464 1120 464 812 c 0
 464 710 469 375 472 284 c 1x60
EndSplineSet
Validated: 1
EndChar

StartChar: M
Encoding: 77 77 157
Width: 2133
Flags: W
HStem: -18 254<1820.5 1997.5> 0 254<1077.5 1254.5> 25 210<203.186 425.636>
VStem: 541 138<1040.57 1244> 1284 138<1004.97 1226>
LayerCount: 2
Fore
SplineSet
1112 454 m 1x98
 1141 385 1173 318 1211 255 c 1
 1217 254 1222 254 1227 254 c 0
 1282 254 1320 301 1364 333 c 1
 1328 224 1157 0 1103 0 c 1x58
 1052 0 1047 11 995 87 c 1
 871 385 727 914 679 1244 c 1
 679 1028 500 625 199 244 c 1
 214 237 235 235 259 235 c 0x38
 321 235 404 252 466 252 c 0
 504 252 535 245 547 224 c 1
 427 0 l 1x58
 398 19 363 25 321 25 c 0x38
 239 25 131 0 -5 0 c 1x58
 -5 325 541 502 541 1420 c 1
 508 1420 464 1389 431 1362 c 1
 459 1432 614 1638 674 1638 c 1
 904 1638 900 1064 1072 562 c 1
 1181 751 1284 1022 1284 1402 c 1
 1251 1402 1207 1371 1174 1344 c 1
 1202 1414 1357 1618 1417 1618 c 1
 1696 1618 1630 774 1954 237 c 1
 1960 236 1965 236 1970 236 c 0
 2025 236 2063 283 2107 315 c 1
 2071 206 1900 -18 1846 -18 c 1
 1795 -18 1790 -7 1738 69 c 1
 1614 367 1470 896 1422 1226 c 1
 1422 1056 1306 753 1112 454 c 1x98
EndSplineSet
Validated: 1
EndChar

StartChar: N
Encoding: 78 78 158
Width: 1590
Flags: W
HStem: 0 254<1223.5 1400.5>
VStem: 280 103<843.32 1396.73> 314 182<256 672.697> 1300 92<1092.73 1610.83>
LayerCount: 2
Fore
SplineSet
1175 458 m 1xd0
 1195 458 1300 1055 1300 1425 c 3
 1300 1439 1295 1445 1287 1445 c 0
 1260 1445 1197 1385 1153 1368 c 1
 1228 1455 1342 1641 1379 1641 c 0
 1387 1641 1392 1630 1392 1605 c 11
 1392 1099 1320 309 1320 309 c 1
 1342 262 1348 263 1357 255 c 1
 1363 254 1368 254 1373 254 c 0
 1428 254 1466 301 1510 333 c 1
 1474 224 1303 0 1249 0 c 1
 1198 0 1139 8 1087 84 c 1
 844 441 568 1400 390 1400 c 1
 385 1362 383 1321 383 1279 c 0xd0
 383 971 496 572 496 181 c 1
 529 166 558 156 577 156 c 0
 616 156 663 173 712 207 c 1
 712 198 601 29 520 -59 c 1
 451 -59 306 -24 249 12 c 0
 192 48 166 76 133 76 c 1
 85 70 106 80 22 19 c 1
 238 259 l 1
 245 266 258 269 273 269 c 0
 287 269 298 259 314 256 c 1xb0
 314 537 280 825 280 1061 c 0
 280 1213 294 1343 340 1437 c 1
 334 1439 329 1440 323 1440 c 0
 306 1440 289 1432 271 1414 c 1
 238 1414 220 1361 187 1334 c 1
 205 1424 334 1630 400 1630 c 0
 401 1630 403 1630 404 1630 c 1
 742 1630 915 973 1175 458 c 1xd0
EndSplineSet
Validated: 1
EndChar

StartChar: O
Encoding: 79 79 159
Width: 1351
Flags: W
HStem: -10 229<647.617 864.5> 1464 212<523.018 721.646>
VStem: 78 175<802.656 1143.35> 1079 175<707.029 991.628>
LayerCount: 2
Fore
SplineSet
1254 921 m 0
 1254 853 1227 746 1172 599 c 0
 1110 436 1039 300 960 192 c 0
 863 57 768 -10 675 -10 c 0
 540 -10 423 57 322 190 c 0
 244 292 182 425 135 589 c 1
 97 716 78 818 78 896 c 0
 78 1064 139 1233 262 1401 c 0
 396 1584 544 1676 708 1676 c 0
 711 1676 l 0
 836 1676 944 1624 1036 1520 c 0
 1107 1439 1163 1331 1205 1196 c 0
 1238 1091 1254 999 1254 921 c 0
1079 720 m 0
 1079 879 1034 1035 945 1190 c 0
 840 1372 706 1464 547 1464 c 0
 544 1464 l 0
 429 1464 350 1424 305 1344 c 0
 271 1283 254 1192 253 1071 c 0
 253 979 274 871 315 745 c 1
 362 599 424 479 501 387 c 0
 595 275 700 219 816 219 c 0
 913 219 986 291 1033 434 c 0
 1064 527 1079 623 1079 720 c 0
EndSplineSet
Validated: 1
EndChar

StartChar: P
Encoding: 80 80 160
Width: 1002
Flags: W
HStem: 1526 196<564 836>
VStem: 287 179<264 713.999 738 779.75> 345 121<779.75 1384.07> 752 198<1278.61 1546>
LayerCount: 2
Fore
SplineSet
459 1461 m 0xd0
 463 1396 464 1313 464 1218 c 0
 464 1044 465 906 466 738 c 1
 476 738 752 1053 752 1292 c 11
 752 1402 703 1526 593 1526 c 19
 535 1526 459 1471 459 1461 c 0xd0
466 665 m 1
 466 607 466 545 466 476 c 0
 466 374 467 276 470 185 c 1
 494 173 524 156 560 156 c 0
 597 156 638 167 690 194 c 9
 486 -64 l 17
 274 -62 272 50 173 50 c 0
 140 50 102 35 52 0 c 9
 287 264 l 17xd0
 304 622 345 956 345 1240 c 0xb0
 345 1296 342 1345 336 1386 c 1
 326 1394 315 1398 304 1398 c 0
 246 1398 178 1300 116 1262 c 1
 217 1377 299 1595 424 1614 c 1
 439 1614 449 1579 455 1517 c 1
 463 1517 633 1722 780 1722 c 11
 892 1722 950 1602 950 1490 c 27
 950 1117 466 678 466 665 c 1
EndSplineSet
Validated: 1
EndChar

StartChar: Q
Encoding: 81 81 161
Width: 1628
Flags: W
HStem: -64 202<1136.5 1413> -10 229<647.617 864.5> 1464 212<523.018 721.646>
VStem: 78 175<802.656 1143.35> 1079 175<707.029 991.628>
LayerCount: 2
Fore
SplineSet
899 116 m 1xb8
 823 32 748 -10 675 -10 c 0x78
 540 -10 423 57 322 190 c 0
 244 292 182 425 135 589 c 1
 97 716 78 818 78 896 c 0
 78 1064 139 1233 262 1401 c 0
 396 1584 544 1676 708 1676 c 0
 711 1676 l 0
 836 1676 944 1624 1036 1520 c 0
 1107 1439 1163 1331 1205 1196 c 0
 1238 1091 1254 999 1254 921 c 0
 1254 853 1227 746 1172 599 c 0
 1135 502 1095 414 1051 336 c 1
 1049 333 1048 329 1048 325 c 0
 1048 266 1243 138 1385 138 c 1
 1441 138 1515 234 1601 324 c 1
 1531 180 1337 -64 1213 -64 c 1
 1060 -61 1019 3 899 116 c 1xb8
1079 720 m 0
 1079 879 1034 1035 945 1190 c 0
 840 1372 706 1464 547 1464 c 0
 544 1464 l 0
 429 1464 350 1424 305 1344 c 0
 271 1283 254 1192 253 1071 c 0
 253 979 274 871 315 745 c 1
 362 599 424 479 501 387 c 0
 595 275 700 219 816 219 c 0
 913 219 986 291 1033 434 c 0
 1064 527 1079 623 1079 720 c 0
EndSplineSet
Validated: 1
EndChar

StartChar: R
Encoding: 82 82 162
Width: 1546
Flags: W
HStem: -26 196<1051 1354.5> 669 69<466.141 495.394> 1526 196<564 836>
VStem: 287 179<264 668.999 738 779.75> 345 121<779.75 1384.07> 752 198<1281.33 1546>
LayerCount: 2
Fore
SplineSet
459 1461 m 0xf4
 463 1396 464 1313 464 1218 c 0
 464 1044 465 906 466 738 c 1
 476 738 752 1053 752 1292 c 11
 752 1402 703 1526 593 1526 c 19
 535 1526 459 1471 459 1461 c 0xf4
466 665 m 1
 466 607 466 545 466 476 c 0
 466 374 467 276 470 185 c 1
 494 173 524 156 560 156 c 0
 597 156 638 167 690 194 c 9
 486 -64 l 17
 274 -62 272 50 173 50 c 0
 140 50 102 35 52 0 c 9
 287 264 l 17xf4
 304 622 345 956 345 1240 c 0xec
 345 1296 342 1345 336 1386 c 1
 326 1394 315 1398 304 1398 c 0
 246 1398 178 1300 116 1262 c 1
 217 1377 299 1595 424 1614 c 1
 439 1614 449 1579 455 1517 c 1
 463 1517 633 1722 780 1722 c 11
 892 1722 950 1602 950 1490 c 19
 950 1272 784 1031 647 866 c 1
 910 624 1108 182 1304 170 c 9
 1405 170 1443 244 1532 292 c 25
 1538 284 l 17
 1476 224 1323 -26 1120 -26 c 17
 982 -16 564 669 475 669 c 0
 472 669 469 668 466 665 c 1
EndSplineSet
Validated: 1
EndChar

StartChar: S
Encoding: 83 83 163
Width: 977
Flags: W
HStem: -33 237<192.457 443.733>
VStem: 104 144<957 1261.01> 655 169<1261.5 1533> 776 162<229.5 592.5>
LayerCount: 2
Fore
SplineSet
644 96 m 1xd0
 666 116 776 207 776 252 c 9xd0
 776 682 104 789 104 1125 c 1
 110 1344 554 1716 647 1725 c 9
 767 1725 824 1593 824 1473 c 27
 824 1323 709 1268 635 1137 c 25
 620 1158 l 17
 643 1191 655 1237 655 1286 c 0xe0
 655 1399 594 1526 485 1527 c 1
 380 1458 276 1340 248 1248 c 1
 254 1107 938 747 938 438 c 1
 929 336 722 90 554 -111 c 1
 446 -76 322 -33 204 -33 c 0
 120 -33 39 -55 -31 -117 c 1
 86 15 163 198 290 204 c 1
 434 184 506 117 644 96 c 1xd0
EndSplineSet
Validated: 1
EndChar

StartChar: T
Encoding: 84 84 164
Width: 1155
Flags: W
HStem: 1418 206<516.855 1044.4> 1472 197<138.404 350.997 351 547.377>
VStem: 492 183<186 704.284> 551 84<1027.19 1423>
LayerCount: 2
Fore
SplineSet
635 1423 m 1x90
 636 1166 671 702 671 398 c 0
 671 296 672 198 675 107 c 1
 699 95 729 78 765 78 c 0
 802 78 843 89 895 116 c 9
 691 -142 l 17
 479 -140 477 -28 378 -28 c 0
 345 -28 307 -43 257 -78 c 9
 492 186 l 17xa0
 509 540 550 1147 551 1434 c 1
 474 1442 378 1471 324 1472 c 1
 320 1472 315 1472 311 1472 c 0
 212 1472 115 1427 5 1374 c 9
 103 1604 l 17
 173 1658 300 1669 339 1669 c 0x50
 347 1669 351 1667 351 1666 c 1
 454 1665 598 1624 781 1624 c 0
 888 1624 1080 1661 1212 1708 c 9
 1100 1480 l 17
 1023 1450 853 1418 757 1418 c 0
 715 1418 674 1420 635 1423 c 1x90
EndSplineSet
Validated: 1
EndChar

StartChar: U
Encoding: 85 85 165
Width: 1689
Flags: W
HStem: -10 254<790.5 1115.5> 1464 190<150.669 256.743>
VStem: 323 190<1006.23 1395.02> 1233 153<984.486 1392>
LayerCount: 2
Fore
SplineSet
323 1233 m 1
 323 1416 218 1464 146 1464 c 0
 126 1464 107 1455 88 1436 c 1
 55 1436 37 1383 4 1356 c 1
 22 1446 152 1654 217 1654 c 0
 219 1654 220 1654 221 1654 c 1
 321 1654 513 1617 513 1392 c 1
 513 990 692 300 986 300 c 1
 1178 677 1233 1026 1233 1464 c 1
 1204 1481 1177 1493 1146 1493 c 0
 1113 1493 1075 1479 1025 1444 c 9
 1233 1693 l 17
 1402 1693 1469 1591 1585 1591 c 0
 1622 1591 1663 1600 1715 1627 c 9
 1511 1369 l 17
 1476 1369 1414 1386 1386 1392 c 1
 1386 870 1158 254 1079 254 c 0
 1076 254 1074 255 1072 256 c 1
 1076 252 1083 244 1088 244 c 0
 1143 244 1181 291 1225 323 c 1
 1189 214 1018 -10 964 -10 c 1
 617 -10 323 832 323 1233 c 1
EndSplineSet
Validated: 1
EndChar

StartChar: V
Encoding: 86 86 166
Width: 1682
Flags: W
HStem: -10 254<931.5 1108.5> 1464 190<143.669 214.939>
LayerCount: 2
Fore
SplineSet
1065 256 m 1
 1069 252 1076 244 1081 244 c 0
 1136 244 1174 291 1218 323 c 1
 1182 214 1011 -10 957 -10 c 1
 906 -10 901 1 849 77 c 1
 725 375 361 1148 305 1280 c 1
 251 1388 195 1464 139 1464 c 0
 119 1464 100 1455 81 1436 c 1
 48 1436 30 1383 -3 1356 c 1
 15 1446 145 1654 210 1654 c 0
 212 1654 213 1654 214 1654 c 1
 480 1654 717 863 1019 324 c 1
 1159 849 1226 1085 1226 1464 c 1
 1197 1481 1170 1493 1139 1493 c 0
 1106 1493 1068 1479 1018 1444 c 9
 1228 1693 l 17
 1397 1693 1462 1591 1578 1591 c 0
 1615 1591 1656 1600 1708 1627 c 9
 1504 1369 l 17
 1469 1369 1407 1386 1379 1392 c 1
 1249 858 1165 546 1072 254 c 1
 1069 254 1067 255 1065 256 c 1
EndSplineSet
Validated: 1
EndChar

StartChar: W
Encoding: 87 87 167
Width: 2582
Flags: W
HStem: -11 254<931.5 1108.5 1831.5 2008.5> 1463 190<143.669 214.939 1036.19 1120.15>
LayerCount: 2
Fore
SplineSet
1360 972 m 1
 1295 603 1158 397 1072 253 c 1
 1069 253 1067 254 1065 255 c 1
 1069 251 1076 243 1081 243 c 0
 1136 243 1174 290 1218 322 c 1
 1182 213 1011 -11 957 -11 c 1
 906 -11 901 0 849 76 c 1
 725 374 361 1147 305 1279 c 1
 251 1387 195 1463 139 1463 c 0
 119 1463 100 1454 81 1435 c 1
 48 1435 30 1382 -3 1355 c 1
 15 1445 145 1653 210 1653 c 0
 212 1653 213 1653 214 1653 c 1
 480 1653 717 862 1019 323 c 1
 1195 668 1234 840 1243 1200 c 1
 1205 1285 l 1
 1151 1393 1095 1469 1039 1469 c 0
 1019 1469 1000 1460 981 1441 c 1
 948 1441 930 1388 897 1361 c 1
 915 1451 1045 1659 1110 1659 c 0
 1112 1659 1113 1659 1114 1659 c 1
 1380 1659 1617 868 1919 329 c 1
 2111 706 2120 1031 2126 1469 c 1
 2097 1486 2070 1498 2039 1498 c 0
 2006 1498 1968 1484 1918 1449 c 9
 2128 1698 l 17
 2297 1698 2362 1594 2478 1594 c 0
 2515 1594 2556 1605 2608 1632 c 9
 2404 1374 l 17
 2369 1374 2307 1391 2279 1397 c 1
 2244 875 2051 259 1972 259 c 0
 1969 259 1967 260 1965 261 c 1
 1969 257 1976 249 1981 249 c 0
 2036 249 2074 296 2118 328 c 1
 2082 219 1911 -5 1857 -5 c 1
 1806 -5 1801 6 1749 82 c 1
 1670 272 1492 685 1360 972 c 1
EndSplineSet
Validated: 1
EndChar

StartChar: X
Encoding: 88 88 168
Width: 1641
Flags: W
HStem: -36 254<1167.5 1344.5> 1438 190<379.669 450.939>
LayerCount: 2
Fore
SplineSet
990 860 m 1
 1074 676 1158 456 1256 296 c 0
 1272 270 1301 231 1301 230 c 0
 1305 226 1312 218 1317 218 c 0
 1372 218 1410 265 1454 297 c 1
 1418 188 1247 -36 1193 -36 c 1
 1142 -36 1137 -25 1085 51 c 1
 1007 183 914 404 809 632 c 1
 695 499 570 374 435 257 c 1
 483 233 526 210 580 210 c 0
 617 210 658 221 710 248 c 9
 506 -10 l 17
 294 -8 240 114 141 114 c 0
 108 114 70 100 20 65 c 9
 230 314 l 17
 302 314 355 295 401 274 c 1
 459 307 620 476 787 688 c 1
 694 949 611 1143 541 1254 c 1
 487 1362 431 1438 375 1438 c 0
 355 1438 336 1429 317 1410 c 1
 284 1410 266 1357 233 1330 c 1
 251 1420 381 1628 446 1628 c 0
 448 1628 449 1628 450 1628 c 1
 626 1628 784 1306 962 915 c 1
 1140 1162 1199 1272 1244 1418 c 1
 1217 1433 1116 1474 1086 1474 c 0
 1053 1474 1015 1460 965 1425 c 9
 1175 1674 l 17
 1344 1674 1409 1570 1525 1570 c 0
 1562 1570 1603 1581 1655 1608 c 9
 1451 1350 l 17
 1371 1351 1374 1349 1328 1371 c 1
 1217 1155 1124 1043 990 860 c 1
EndSplineSet
Validated: 1
EndChar

StartChar: Y
Encoding: 89 89 169
Width: 1706
Flags: W
HStem: 1425 203<153.5 390.5>
VStem: 782 95<323.978 706.543>
LayerCount: 2
Fore
SplineSet
1345 1369 m 1
 1308 1269 1270 1205 1189 1110 c 0
 1154 1068 1073 984 947 858 c 1
 967 851 984 848 999 848 c 0
 1030 848 1053 864 1086 895 c 1
 1061 836 992 766 877 684 c 1
 877 682 877 681 877 679 c 0
 877 580 906 388 957 135 c 1
 977 128 999 124 1022 124 c 0
 1059 124 1100 135 1152 162 c 9
 948 -96 l 17
 736 -94 682 28 583 28 c 0
 550 28 512 14 462 -21 c 9
 672 228 l 17
 699 228 723 225 745 221 c 1
 744 230 744 241 744 252 c 0
 744 358 782 533 782 639 c 0
 782 650 783 661 782 670 c 1
 738 695 679 774 607 907 c 0
 506 1093 440 1208 410 1251 c 0
 328 1367 249 1425 173 1425 c 0
 134 1425 73 1393 -5 1327 c 1
 150 1497 l 1
 241 1584 308 1628 351 1628 c 0
 430 1628 502 1567 583 1460 c 0
 630 1398 834 933 916 874 c 1
 1098 1102 1153 1162 1239 1428 c 1
 1210 1445 1183 1458 1151 1458 c 0
 1118 1458 1080 1444 1030 1409 c 9
 1240 1658 l 17
 1409 1658 1474 1554 1590 1554 c 0
 1627 1554 1668 1564 1720 1591 c 9
 1516 1334 l 17
 1443 1335 1389 1350 1345 1369 c 1
EndSplineSet
Validated: 1
EndChar

StartChar: Z
Encoding: 90 90 170
Width: 1714
Flags: W
HStem: -49 201<878.145 1319.82> 59 199<361.031 604.974> 1300 238<886.551 1256.09> 1434 198<363.146 539.768>
LayerCount: 2
Fore
SplineSet
1019 -49 m 0x80
 798 -49 513 59 292 59 c 0
 291 59 290 59 290 59 c 0x40
 233 59 173 24 110 -49 c 1
 218 242 363 500 542 733 c 0
 667 895 868 1113 1148 1384 c 1
 1023 1323 l 1
 982 1307 940 1300 898 1300 c 0xa0
 709 1300 509 1433 335 1434 c 0
 241 1434 152 1345 97 1320 c 1
 280 1524 l 1
 356 1596 435 1632 518 1632 c 0
 521 1632 l 0x10
 732 1632 1010 1538 1232 1538 c 0
 1382 1538 1503 1571 1594 1638 c 1
 1134 1171 581 844 325 180 c 1
 372 232 423 258 480 258 c 0x60
 690 258 974 152 1187 152 c 0
 1386 152 1556 198 1695 289 c 1
 1565 155 1467 69 1400 31 c 0
 1305 -22 1178 -49 1019 -49 c 0x80
EndSplineSet
Validated: 1
EndChar

StartChar: a
Encoding: 97 97 171
Width: 1362
VWidth: 1639
Flags: W
HStem: 0 204<1070.5 1228.5> 21 168<177.186 399.636>
VStem: 515 138<833.189 996>
LayerCount: 2
Fore
SplineSet
515 1137 m 1xa0
 482 1137 438 1112 405 1090 c 1
 433 1146 588 1311 648 1311 c 0
 927 1311 861 634 1185 205 c 1
 1191 204 1196 204 1201 204 c 0
 1256 204 1294 242 1338 267 c 1
 1302 180 1150 0 1096 0 c 0xa0
 1045 0 1021 10 969 70 c 1
 845 309 701 732 653 996 c 1
 653 823 474 501 173 196 c 1
 188 190 209 189 233 189 c 0x60
 295 189 378 202 440 202 c 0
 478 202 509 197 521 180 c 1
 401 0 l 1xa0
 372 15 337 21 295 21 c 0x60
 213 21 105 0 -31 0 c 1
 -31 260 515 402 515 1137 c 1xa0
EndSplineSet
Validated: 1
EndChar

StartChar: b
Encoding: 98 98 172
Width: 1240
VWidth: 1645
Flags: W
HStem: 7 167<457.501 731.367> 1212 158<476.909 674.304>
VStem: 276 123<849.069 1164> 290 164<271.76 650.458 705 1053.51> 714 192<1031.5 1267> 1044 195<335.954 548.581>
LayerCount: 2
Fore
SplineSet
459 626 m 1xdc
 459 469 454 335 454 174 c 1
 548 174 637 157 736 157 c 0
 809 157 888 167 978 199 c 1
 1025 276 1044 344 1044 403 c 0
 1044 597 835 708 658 798 c 1
 599 745 533 668 459 626 c 1xdc
387 1284 m 1
 477 1328 573 1370 660 1370 c 0
 819 1370 906 1298 906 1236 c 0
 906 1164 861 1077 779 987 c 1
 999 916 1239 740 1239 492 c 0
 1239 223 846 7 564 7 c 0
 446 7 345 22 233 22 c 0
 165 22 92 16 9 -3 c 9
 144 136 l 17
 181 151 212 160 242 167 c 1
 282 396 290 588 290 776 c 0xdc
 290 896 276 1038 276 1164 c 1xec
 189 1137 105 1100 61 1069 c 1
 104 1120 189 1161 279 1219 c 1
 279 1272 l 9
 408 1374 l 17
 387 1284 l 1
399 1190 m 1xec
 399 1028 456 867 456 705 c 1
 587 853 714 976 714 1087 c 0
 714 1160 635 1212 540 1212 c 0
 482 1212 442 1190 399 1190 c 1xec
EndSplineSet
Validated: 1
EndChar

StartChar: c
Encoding: 99 99 173
Width: 1251
VWidth: 1640
Flags: W
HStem: 0 153<387.5 726.168> 921 21G<946 968.182> 1185 135<617.907 833.578>
VStem: 55 198<417.803 694.714>
LayerCount: 2
Fore
SplineSet
946 921 m 17
 946 1120 816 1185 640 1185 c 3
 391 1185 253 881 253 611 c 27
 253 359 457 153 709 153 c 16
 881 153 970 230 1084 342 c 9
 1141 371 l 17
 1055 213 760 0 514 0 c 8
 261 0 55 205 55 458 c 19
 55 866 476 1320 813 1320 c 2
 826 1320 l 1
 988 1320 1129 1286 1129 1086 c 9
 946 921 l 17
EndSplineSet
Validated: 1
EndChar

StartChar: d
Encoding: 100 100 174
Width: 1290
VWidth: 1641
Flags: W
HStem: -12 154<445.474 770.934> 1171 128<389.285 678.81>
VStem: 277 109<729.479 1145> 1072 195<430.097 782.358>
LayerCount: 2
Fore
SplineSet
500 -12 m 0
 382 -12 332 3 220 3 c 0
 152 3 79 -3 -4 -22 c 9
 131 117 l 17
 168 132 199 141 229 148 c 1
 269 377 277 568 277 757 c 0
 277 877 263 1019 263 1145 c 1
 176 1118 92 1081 48 1050 c 1
 91 1100 176 1142 266 1200 c 1
 266 1252 l 9
 395 1355 l 17
 374 1264 l 1
 450 1288 618 1299 703 1299 c 0
 961 1299 1267 972 1267 620 c 0
 1267 406 1039 -12 500 -12 c 0
386 1171 m 1
 386 1009 442 332 442 171 c 1
 516 148 597 142 676 142 c 0
 762 142 846 149 916 149 c 1
 988 219 1072 360 1072 502 c 3
 1072 884 865 1171 386 1171 c 1
EndSplineSet
Validated: 1
EndChar

StartChar: e
Encoding: 101 101 175
Width: 1197
VWidth: 1646
Flags: W
HStem: 12 136<461.087 957.356> 640 134<436.594 718.89> 1136 136<460.18 910.768> 1183 137<410 686.022>
VStem: 281 153<182.692 660 805 1170.61> 298 112<812.21 1172>
LayerCount: 2
Fore
SplineSet
408 1320 m 1xd4
 521 1320 601 1272 752 1272 c 0
 824 1272 912 1284 1027 1316 c 9
 907 1168 l 17
 843 1144 787 1136 736 1136 c 0xe4
 617 1136 522 1183 410 1183 c 1xd4
 410 1101 424 959 424 805 c 1
 494 805 512 774 593 774 c 0
 641 774 713 783 832 809 c 9
 712 660 l 17
 638 646 594 640 561 640 c 0
 510 640 491 653 434 660 c 1
 434 446 459 256 459 179 c 1
 543 170 630 148 750 148 c 0
 838 148 944 160 1078 198 c 9
 958 49 l 17
 882 21 808 12 738 12 c 0
 613 12 498 43 395 43 c 1
 215 43 213 25 49 -20 c 9
 155 131 l 17
 180 146 215 156 248 164 c 1
 267 269 281 453 281 669 c 1xd8
 242 669 217 660 132 614 c 1
 162 663 189 710 238 764 c 1
 256 775 277 787 293 793 c 1
 293 892 298 995 298 1083 c 2
 298 1172 l 1
 242 1162 196 1145 97 1118 c 9
 203 1268 l 17
 226 1283 258 1295 290 1300 c 1
 295 1317 l 9
 418 1407 l 17
 412 1380 408 1349 408 1320 c 1xd4
EndSplineSet
Validated: 1
EndChar

StartChar: f
Encoding: 102 102 176
Width: 1114
VWidth: 1674
Flags: W
HStem: -18 136<462.701 593.951> 72 134<161 292> 1010 120<721.833 911.118> 1071 117<498.392 693.425> 1414 146<409.293 967.011> 1449 153<404 800.384> 1449 134<267.067 329>
VStem: 329 131<556.669 1022 1050.64 1068.57 1114 1356.87> 340 64<1249.17 1449>
LayerCount: 2
Fore
SplineSet
766 1010 m 0x2080
 687 1010 646 1071 534 1071 c 0
 507 1071 480 1066 460 1050 c 1
 460 155 l 1
 491 130 569 118 589 118 c 0
 628 118 678 135 727 162 c 1
 727 162 646 71 577 11 c 1
 557 -10 518 -18 473 -18 c 0x91
 277 -18 222 72 161 72 c 1
 113 67 134 75 50 26 c 1
 250 201 l 2
 257 206 276 206 292 206 c 1
 311 310 329 806 329 1022 c 1x41
 290 1022 267 991 182 945 c 1
 204 970 227 999 250 1031 c 1
 268 1042 321 1071 337 1078 c 1
 337 1176 340 1272 340 1360 c 2
 340 1449 l 1x4280
 284 1439 238 1422 139 1395 c 9
 266 1556 l 17
 289 1570 297 1578 329 1583 c 1x43
 329 1594 l 9
 360 1682 l 17
 362 1673 368 1615 374 1602 c 1x05
 487 1602 664 1560 815 1560 c 2
 823 1560 l 2
 891 1560 1088 1603 1090 1604 c 9
 970 1455 l 17
 906 1432 857 1414 806 1414 c 0x09
 687 1414 516 1449 404 1449 c 1
 404 1367 446 1268 446 1114 c 1
 532 1161 562 1188 660 1188 c 1x1480
 756 1178 789 1130 876 1130 c 27x2080
 936 1130 963 1165 1018 1188 c 25x1080
 916 1057 l 17
 862 1033 816 1010 766 1010 c 0x2080
EndSplineSet
Validated: 1
EndChar

StartChar: g
Encoding: 103 103 177
Width: 1388
VWidth: 1640
Flags: W
HStem: 0 153<448 818.154> 573 161<821.292 1055.65> 921 21G<944 966.182> 1185 135<603.719 831.578>
VStem: 53 198<327.952 710.656> 1219 170<265.5 573>
LayerCount: 2
Fore
SplineSet
1219 350 m 0
 1219 464 1034 573 855 573 c 8
 761 573 722 511 637 472 c 25
 821 694 l 25
 891 710 929 734 1001 734 c 16
 1194 734 1389 653 1389 493 c 0
 1389 197 818 0 522 0 c 0
 374 0 53 202 53 458 c 19
 53 866 415 1320 811 1320 c 2
 824 1320 l 2
 986 1320 1127 1286 1127 1086 c 9
 944 921 l 17
 944 1120 814 1185 638 1185 c 3
 389 1185 251 881 251 611 c 27
 251 359 585 153 707 153 c 0
 879 153 1219 181 1219 350 c 0
EndSplineSet
Validated: 1
EndChar

StartChar: h
Encoding: 104 104 178
Width: 1847
VWidth: 1644
Flags: W
HStem: -10 162<1218.5 1500.5> 753 173<705.075 1167> 771 164<491 696.898> 793 164<495.262 1158.97> 1110 21G<147 161.5>
VStem: 259 223<229 642.823> 345 147<937.35 1207.49> 1156 187<211.724 753>
LayerCount: 2
Fore
SplineSet
1260 -10 m 0xcb
 1177 -10 1156 339 1156 545 c 0
 1156 613 1159 682 1167 753 c 1xcb
 996 753 807 793 700 793 c 0x9b
 634 793 557 783 488 771 c 1
 488 634 482 490 482 353 c 0
 482 292 484 233 484 176 c 1
 520 162 549 147 590 147 c 0
 627 147 668 156 720 177 c 9
 516 -29 l 17
 296 -29 255 70 151 70 c 0
 118 70 80 59 30 31 c 9
 240 230 l 17
 250 230 250 230 259 229 c 1xad
 259 394 296 573 316 736 c 1
 261 722 203 708 154 694 c 9
 252 873 l 17
 269 884 300 893 334 902 c 1
 341 971 345 1038 345 1093 c 0
 345 1137 342 1177 336 1209 c 1
 326 1216 315 1219 304 1219 c 0
 246 1219 178 1141 116 1110 c 1
 207 1203 336 1373 452 1395 c 1
 484 1395 492 1265 492 1078 c 0
 492 1034 491 984 491 935 c 1xab
 582 949 668 957 682 957 c 2
 715 957 l 2x9b
 890 957 1035 926 1197 926 c 1xcb
 1210 981 1227 1037 1248 1094 c 9
 1536 1337 l 17
 1559 1345 1583 1348 1606 1348 c 0
 1664 1348 1722 1329 1780 1310 c 9
 1584 1152 l 17
 1563 1167 1531 1183 1492 1183 c 0
 1473 1183 1451 1179 1428 1168 c 1
 1400 1088 1380 1009 1366 931 c 1
 1414 938 1470 954 1524 969 c 9
 1400 771 l 17xab
 1384 766 1363 756 1346 753 c 1
 1346 717 1343 684 1343 648 c 0
 1343 497 1362 348 1388 201 c 1
 1414 166 1440 152 1466 152 c 0
 1535 152 1603 246 1672 288 c 1
 1624 214 1480 -10 1260 -10 c 0xcb
EndSplineSet
Validated: 1
EndChar

StartChar: i
Encoding: 105 105 179
Width: 738
VWidth: 1630
Flags: W
VStem: 228 183<203 724.696> 286 119<528.981 1099.45>
LayerCount: 2
Fore
SplineSet
411 140 m 1x80
 435 130 465 117 501 117 c 0
 538 117 579 126 631 147 c 9
 427 -59 l 17
 215 -59 213 32 114 32 c 0
 81 32 43 20 -7 -8 c 9
 228 203 l 17x80
 228 490 286 757 286 984 c 0
 286 1029 283 1068 277 1101 c 1
 267 1107 256 1110 245 1110 c 0
 187 1110 119 1032 57 1002 c 1
 158 1094 240 1268 365 1283 c 1
 397 1283 405 1154 405 966 c 0x40
 405 762 407 619 407 373 c 0
 407 291 411 213 411 140 c 1x80
EndSplineSet
Validated: 1
EndChar

StartChar: j
Encoding: 106 106 180
Width: 1193
VWidth: 1620
Flags: W
HStem: -157 172<284.102 412.951> 1038 176<746.981 922> 1119 160<534 637.396>
VStem: 16 200<76.7805 216.754> 559 199<83.9037 544.209> 643 99<656.965 1056>
LayerCount: 2
Fore
SplineSet
758 127 m 1xd8
 752 99 415 -133 415 -133 c 9
 371 -142 346 -157 301 -157 c 16
 154 -157 16 -111 16 46 c 2
 16 56 l 2
 16 253 161 332 295 433 c 1
 240 326 216 245 216 185 c 0
 216 38 360 15 531 15 c 2
 559 15 l 1xd8
 559 294 643 843 643 1079 c 1
 562 1099 495 1119 445 1119 c 0
 412 1119 374 1108 324 1080 c 9
 534 1279 l 17xb4
 703 1279 880 1214 996 1214 c 0
 1033 1214 1074 1223 1126 1244 c 9
 922 1038 l 17
 858 1038 797 1046 742 1056 c 1xd4
 742 856 754 600 754 360 c 0
 754 279 758 200 758 127 c 1xd8
EndSplineSet
Validated: 1
EndChar

StartChar: k
Encoding: 107 107 181
Width: 1613
VWidth: 1635
Flags: W
HStem: -3 193<1055 1288> 1066 176<1232.99 1319>
VStem: 234 183<209 625> 298 114<589.28 625 708 1147.49>
LayerCount: 2
Fore
SplineSet
719 796 m 1xd0
 837 586 1131 190 1245 190 c 0
 1331 190 1436 307 1493 348 c 9
 1507 335 l 17
 1379 222 1227 -3 1121 -3 c 0
 989 -3 692 432 493 665 c 9
 412 625 l 1xd0
 412 552 413 473 413 378 c 0
 413 297 417 218 417 145 c 1
 441 136 471 122 507 122 c 0
 544 122 585 131 637 153 c 9
 433 -54 l 17
 221 -54 219 37 120 37 c 0
 87 37 50 25 0 -3 c 9
 234 209 l 17xe0
 234 495 298 805 298 1033 c 0xd0
 298 1077 295 1117 289 1149 c 1
 279 1156 268 1159 257 1159 c 0
 199 1159 131 1081 69 1050 c 1
 170 1142 252 1317 377 1332 c 1
 409 1332 417 1202 417 1015 c 0xe0
 417 926 412 813 412 729 c 2
 412 708 l 1
 684 858 872 993 1067 1129 c 1
 1028 1149 995 1165 954 1165 c 0
 921 1165 883 1154 833 1126 c 9
 1043 1325 l 17
 1212 1325 1277 1242 1393 1242 c 0
 1430 1242 1471 1251 1523 1273 c 9
 1319 1066 l 17
 1225 1066 1162 1086 1113 1108 c 1
 996 993 868 885 719 796 c 1xd0
EndSplineSet
Validated: 1
EndChar

StartChar: l
Encoding: 108 108 182
Width: 1193
VWidth: 1669
Flags: W
HStem: 19 179<181 243.933> 43 160<576.71 1049.56> 86 172<481 746.264>
VStem: 352 129<258 1406.45>
LayerCount: 2
Fore
SplineSet
481 258 m 1x30
 593 258 705 203 881 203 c 0
 961 203 1053 214 1164 246 c 9
 1046 69 l 17
 985 50 924 43 866 43 c 0x50
 723 43 590 86 476 86 c 1x30
 296 86 241 64 77 19 c 9
 181 198 l 17x90
 207 214 311 229 352 237 c 1
 352 1291 l 1
 352 1336 349 1375 343 1408 c 1
 333 1415 322 1418 311 1418 c 0
 253 1418 192 1358 130 1328 c 1
 231 1420 306 1575 431 1591 c 1
 463 1591 471 1461 471 1274 c 0
 471 1069 473 927 473 680 c 0
 473 599 481 331 481 258 c 1x30
EndSplineSet
Validated: 1
EndChar

StartChar: m
Encoding: 109 109 183
Width: 2112
VWidth: 1637
Flags: W
HStem: 19 168<176.186 398.636>
VStem: 514 138<831.654 994> 1257 138<803.324 980>
LayerCount: 2
Fore
SplineSet
1085 362 m 1
 1114 307 1146 253 1184 203 c 1
 1190 202 1195 202 1200 202 c 0
 1255 202 1293 240 1337 265 c 1
 1301 178 1130 0 1076 0 c 0
 1025 0 1020 8 968 69 c 1
 844 307 700 730 652 994 c 1
 652 821 473 499 172 194 c 1
 187 189 208 187 232 187 c 0
 294 187 377 201 439 201 c 0
 477 201 508 195 520 178 c 1
 400 0 l 1
 371 15 336 19 294 19 c 0
 212 19 104 0 -32 0 c 1
 -32 260 514 401 514 1135 c 1
 481 1135 437 1110 404 1089 c 1
 432 1145 591 1290 651 1290 c 0
 881 1290 873 850 1045 449 c 1
 1154 600 1257 817 1257 1121 c 1
 1224 1121 1180 1096 1147 1074 c 1
 1175 1130 1330 1293 1390 1293 c 0
 1669 1293 1603 618 1927 189 c 1
 1933 188 1938 188 1943 188 c 0
 1998 188 2036 225 2080 251 c 1
 2044 164 1873 -15 1819 -15 c 0
 1768 -15 1763 -7 1711 54 c 1
 1587 293 1443 716 1395 980 c 1
 1395 844 1279 601 1085 362 c 1
EndSplineSet
Validated: 1
EndChar

StartChar: n
Encoding: 110 110 184
Width: 1555
VWidth: 1633
Flags: W
HStem: 1126 173<334.929 398.47>
VStem: 228 103<669.823 1112.63> 262 182<200 533.413> 1248 92<786.081 1286.58>
LayerCount: 2
Fore
SplineSet
1268 242 m 1xd0
 1293 200 1304 198 1316 198 c 0
 1318 198 1319 198 1321 198 c 0
 1376 198 1414 236 1458 262 c 1
 1422 174 1251 -5 1197 -5 c 0
 1146 -5 1087 2 1035 62 c 0
 792 348 516 1115 338 1115 c 1
 333 1085 331 1052 331 1018 c 0xd0
 331 772 444 453 444 140 c 1
 477 128 506 120 525 120 c 0
 564 120 611 134 660 161 c 1
 660 154 544 1 463 -69 c 1
 394 -69 254 -24 197 5 c 0
 140 34 114 56 81 56 c 1
 33 51 54 59 -30 10 c 1
 186 202 l 2
 193 208 206 210 221 210 c 0
 235 210 246 202 262 200 c 1xb0
 262 425 228 655 228 844 c 0
 228 966 242 1070 288 1145 c 1
 282 1146 277 1147 271 1147 c 0
 254 1147 237 1141 219 1126 c 1
 186 1126 168 1084 135 1062 c 1
 153 1134 282 1299 348 1299 c 2
 352 1299 l 2
 690 1299 863 774 1123 362 c 1
 1143 362 1248 839 1248 1135 c 3
 1248 1146 1243 1151 1235 1151 c 0
 1208 1151 1145 1103 1101 1090 c 1
 1176 1159 1275 1302 1312 1302 c 0
 1320 1302 1340 1299 1340 1279 c 11
 1340 874 1268 242 1268 242 c 1xd0
EndSplineSet
Validated: 1
EndChar

StartChar: o
Encoding: 111 111 185
Width: 1257
VWidth: 1642
Flags: W
HStem: -4 183<596.896 872> 1175 169<462.335 689.653>
VStem: 38 175<645.262 917.475> 1039 175<572.622 795.402>
LayerCount: 2
Fore
SplineSet
671 1344 m 2
 1073 1344 1214 902 1214 740 c 0
 1214 585 933 -4 635 -4 c 0
 199 -4 38 575 38 720 c 0
 38 855 99 990 222 1124 c 0
 356 1271 504 1344 668 1344 c 2
 671 1344 l 2
776 179 m 0
 968 179 1039 423 1039 580 c 0
 1039 707 994 832 905 956 c 0
 800 1101 666 1175 507 1175 c 2
 504 1175 l 2
 271 1175 213 1046 213 860 c 1
 213 664 400 179 776 179 c 0
EndSplineSet
Validated: 1
EndChar

StartChar: p
Encoding: 112 112 186
Width: 995
VWidth: 1641
Flags: W
HStem: 1224 156<512 777>
VStem: 235 179<214 572.285 593 723.541> 293 121<601.953 1110.45> 700 198<1017.21 1244>
LayerCount: 2
Fore
SplineSet
407 1172 m 0xd0
 407 1120 412 1053 412 977 c 0
 412 838 414 728 414 593 c 1
 424 593 700 845 700 1036 c 11
 700 1124 651 1224 541 1224 c 19
 483 1224 407 1180 407 1172 c 0xd0
414 535 m 2
 414 384 l 2
 414 302 418 224 418 151 c 1
 442 141 472 128 508 128 c 0
 545 128 586 136 638 158 c 9
 451 -54 l 17
 239 -54 220 43 121 43 c 0
 88 43 50 31 0 3 c 9
 235 214 l 17xd0
 235 500 293 768 293 995 c 0xb0
 293 1040 290 1079 284 1112 c 1
 274 1118 263 1121 252 1121 c 0
 194 1121 126 1043 64 1012 c 1
 165 1104 247 1279 372 1294 c 1
 387 1294 397 1266 403 1216 c 1
 411 1216 581 1380 728 1380 c 11
 826 1380 898 1293 898 1195 c 27
 898 876 414 545 414 535 c 2
EndSplineSet
Validated: 1
EndChar

StartChar: q
Encoding: 113 113 187
Width: 1583
VWidth: 1636
Flags: W
HStem: -69 178<1070.5 1373> -10 183<596.896 874.51> 1169 170<462.335 689.653>
VStem: 38 175<639.926 912.265> 1039 175<564.875 789.902>
LayerCount: 2
Fore
SplineSet
671 1339 m 2x78
 1073 1339 1214 897 1214 735 c 0
 1214 641 1119 421 1011 267 c 0
 1009 265 1008 261 1008 258 c 0
 1008 211 1203 109 1345 109 c 0
 1401 109 1475 185 1561 257 c 1
 1491 142 1271 -69 1147 -69 c 1xb8
 994 -69 979 1 859 91 c 1
 783 24 708 -10 635 -10 c 0
 199 -10 38 570 38 715 c 0
 38 849 99 985 222 1119 c 0
 356 1265 504 1339 668 1339 c 2
 671 1339 l 2x78
776 173 m 0x78
 968 173 1039 417 1039 574 c 0
 1039 701 994 826 905 950 c 0
 800 1096 666 1169 507 1169 c 2
 504 1169 l 2
 271 1169 213 1041 213 855 c 1
 213 658 400 173 776 173 c 0x78
EndSplineSet
Validated: 1
EndChar

StartChar: r
Encoding: 114 114 188
Width: 1525
VWidth: 1641
Flags: W
HStem: -18 157<999 1299.1> 538 55<414.141 443.394> 1224 156<512 777>
VStem: 235 179<214 537.999 593 723.541> 293 121<601.953 1110.45> 700 198<1027.66 1244>
LayerCount: 2
Fore
SplineSet
407 1172 m 0xf4
 407 1120 412 1053 412 977 c 0
 412 838 414 728 414 593 c 1
 424 593 700 845 700 1036 c 11
 700 1124 651 1224 541 1224 c 19
 483 1224 407 1180 407 1172 c 0xf4
414 535 m 1
 414 384 l 2
 414 302 418 224 418 151 c 1
 442 141 472 128 508 128 c 0
 545 128 586 136 638 158 c 9
 445 -42 l 17
 233 -42 220 43 121 43 c 0
 88 43 50 31 0 3 c 9
 235 214 l 17xf4
 235 500 293 768 293 995 c 0xec
 293 1040 290 1079 284 1112 c 1
 274 1118 263 1121 252 1121 c 0
 194 1121 126 1043 64 1012 c 1
 165 1104 247 1279 372 1294 c 1
 387 1294 397 1266 403 1216 c 1
 411 1216 581 1380 728 1380 c 11
 826 1380 898 1293 898 1195 c 19
 898 1020 732 828 595 696 c 1
 858 502 1056 139 1252 139 c 1
 1378 139 1411 186 1480 236 c 9
 1486 230 l 17
 1428 174 1414 -18 1068 -18 c 1
 930 -18 512 538 423 538 c 0
 420 538 417 537 414 535 c 1
EndSplineSet
Validated: 1
EndChar

StartChar: s
Encoding: 115 115 189
Width: 987
VWidth: 1636
Flags: W
HStem: -29 190<158.255 453.292>
VStem: 85 144<938.547 1007.28> 636 169<1007 1224> 757 162<181 471.5>
LayerCount: 2
Fore
SplineSet
625 75 m 1xd0
 647 91 757 163 757 199 c 8xd0
 757 543 85 629 85 898 c 1
 85 1073 535 1378 628 1378 c 9
 748 1378 805 1272 805 1176 c 27
 805 1056 690 1012 616 907 c 25
 601 924 l 17
 624 951 636 987 636 1027 c 0xe0
 636 1117 575 1219 466 1219 c 1
 361 1164 257 1070 229 996 c 1
 229 883 919 595 919 348 c 1
 910 267 703 70 535 -91 c 1
 427 -63 303 -29 185 -29 c 0
 101 -29 20 -46 -50 -96 c 1
 67 10 144 161 271 161 c 1
 415 145 487 91 625 75 c 1xd0
EndSplineSet
Validated: 1
EndChar

StartChar: t
Encoding: 116 116 190
Width: 1239
VWidth: 1632
Flags: W
HStem: 1128 165<327.858 523 607 1052.33> 1171 158<91.2531 322.997 323 519.377>
VStem: 464 183<142 661.75> 523 84<730.885 1132>
LayerCount: 2
Fore
SplineSet
607 1132 m 1x90
 607 926 643 555 643 312 c 0
 643 230 647 152 647 79 c 1
 671 70 701 56 737 56 c 0
 774 56 815 65 867 86 c 9
 663 -120 l 17
 451 -120 449 -29 350 -29 c 0
 317 -29 279 -41 229 -69 c 9
 464 142 l 17xa0
 464 426 523 911 523 1141 c 1
 446 1141 350 1171 296 1171 c 1
 283 1171 l 2
 184 1171 87 1135 -23 1093 c 9
 75 1277 l 17
 145 1320 272 1329 311 1329 c 0x50
 319 1329 323 1327 323 1326 c 0
 426 1326 570 1293 753 1293 c 0
 860 1293 1052 1322 1184 1360 c 9
 1072 1178 l 17
 995 1154 825 1128 729 1128 c 0
 687 1128 646 1132 607 1132 c 1x90
EndSplineSet
Validated: 1
EndChar

StartChar: u
Encoding: 117 117 191
Width: 1723
VWidth: 1643
Flags: W
HStem: -3 203<809 1072.5> 1100 176<1380.94 1468> 1176 152<95.2738 224.856>
VStem: 280 190<885.185 1121.16> 1190 153<780.676 1119>
LayerCount: 2
Fore
SplineSet
280 992 m 0xd8
 280 1138 175 1176 103 1176 c 0
 83 1176 64 1169 45 1154 c 1
 12 1154 -6 1112 -39 1090 c 1
 -21 1162 109 1328 174 1328 c 2
 178 1328 l 2
 278 1328 470 1299 470 1119 c 0
 470 797 778 264 983 264 c 1
 1175 566 1190 826 1190 1176 c 1xb8
 1161 1190 1134 1200 1103 1200 c 0
 1070 1200 1032 1188 982 1160 c 9
 1190 1360 l 17
 1359 1360 1426 1276 1542 1276 c 0
 1579 1276 1616 1295 1668 1317 c 9
 1468 1100 l 17
 1433 1100 1371 1114 1343 1119 c 1
 1343 701 1115 208 1036 208 c 0
 1033 208 1031 209 1029 210 c 1
 1033 207 1040 200 1045 200 c 0
 1100 200 1138 238 1182 264 c 1
 1146 176 975 -3 921 -3 c 0
 697 -3 280 671 280 992 c 0xd8
EndSplineSet
Validated: 1
EndChar

StartChar: v
Encoding: 118 118 192
Width: 1716
VWidth: 1643
Flags: W
HStem: -3 203<888.5 1065.5> 1100 176<1374.99 1461> 1176 152<88.2738 182.351>
LayerCount: 2
Fore
SplineSet
1022 210 m 1xc0
 1026 207 1033 200 1038 200 c 0
 1093 200 1131 238 1175 264 c 1
 1139 176 968 -3 914 -3 c 0
 863 -3 858 6 806 67 c 1
 682 305 318 924 262 1029 c 1
 208 1116 152 1176 96 1176 c 0
 76 1176 57 1169 38 1154 c 1
 5 1154 -13 1112 -46 1090 c 1
 -28 1162 102 1328 167 1328 c 2
 171 1328 l 2
 437 1328 674 696 976 264 c 1
 1116 684 1183 873 1183 1176 c 1xa0
 1154 1190 1127 1200 1096 1200 c 0
 1063 1200 1025 1188 975 1160 c 9
 1185 1360 l 17
 1354 1360 1419 1276 1535 1276 c 0
 1572 1276 1609 1298 1661 1320 c 9
 1461 1100 l 17
 1426 1100 1364 1114 1336 1119 c 1
 1206 692 1122 442 1029 208 c 1
 1026 208 1024 209 1022 210 c 1xc0
EndSplineSet
Validated: 1
EndChar

StartChar: w
Encoding: 119 119 193
Width: 2620
VWidth: 1644
Flags: W
HStem: -3 203<888.5 1065.5 1788.5 1965.5> 1105 176<2273.94 2361> 1176 152<88.2738 182.351 984.116 1083.45>
VStem: 2083 153<785.28 1123>
LayerCount: 2
Fore
SplineSet
1317 783 m 1xd0
 1252 488 1115 323 1029 208 c 1
 1026 208 1024 209 1022 210 c 1
 1026 206 1033 200 1038 200 c 0
 1093 200 1131 238 1175 263 c 1
 1139 176 968 -3 914 -3 c 0
 863 -3 858 6 806 66 c 1
 682 305 318 923 262 1029 c 1
 208 1115 152 1176 96 1176 c 0
 76 1176 57 1169 38 1154 c 1
 5 1154 -13 1111 -46 1090 c 1
 -28 1162 102 1328 167 1328 c 2
 171 1328 l 2xb0
 437 1328 674 695 976 264 c 1
 1152 540 1200 678 1200 966 c 1
 1162 1034 l 1
 1108 1120 1052 1181 996 1181 c 0
 976 1181 957 1174 938 1158 c 1
 905 1158 887 1116 854 1094 c 1
 872 1166 1002 1333 1067 1333 c 2
 1071 1333 l 2
 1337 1333 1574 700 1876 269 c 1
 2068 570 2083 830 2083 1181 c 1
 2054 1194 2027 1204 1996 1204 c 0
 1963 1204 1925 1193 1875 1165 c 9
 2083 1364 l 17
 2252 1364 2319 1281 2435 1281 c 0
 2472 1281 2513 1290 2565 1311 c 9
 2361 1105 l 17
 2326 1105 2264 1118 2236 1123 c 1
 2236 706 2008 213 1929 213 c 0
 1926 213 1924 214 1922 214 c 1
 1926 211 1933 205 1938 205 c 0
 1993 205 2031 242 2075 268 c 1
 2039 181 1868 0 1814 0 c 0
 1763 0 1758 10 1706 71 c 1
 1627 223 1449 554 1317 783 c 1xd0
EndSplineSet
Validated: 1
EndChar

StartChar: x
Encoding: 120 120 194
Width: 1668
VWidth: 1639
Flags: W
HStem: -28 203<1124.5 1301.5> -7 176<398.842 463> 1081 176<1321.99 1408> 1151 152<324.274 415.237> 1180 160<1132 1197.56>
LayerCount: 2
Fore
SplineSet
947 689 m 1x20
 1031 542 1115 366 1213 238 c 0
 1229 217 1258 186 1258 185 c 0
 1262 182 1269 175 1274 175 c 0
 1329 175 1367 213 1411 238 c 1
 1375 151 1204 -28 1150 -28 c 0xa0
 1099 -28 1094 -19 1042 42 c 1
 964 147 871 324 766 506 c 1
 652 400 527 300 392 206 c 1
 440 187 483 169 537 169 c 0
 574 169 615 178 667 199 c 9
 463 -7 l 17
 251 -7 197 92 98 92 c 0
 65 92 27 81 -23 53 c 9
 187 252 l 17
 259 252 312 237 358 220 c 1
 416 246 577 382 744 551 c 1
 651 760 568 915 498 1004 c 1
 444 1090 388 1151 332 1151 c 0
 312 1151 293 1144 274 1129 c 1
 241 1129 223 1086 190 1065 c 1
 208 1137 338 1303 403 1303 c 2
 407 1303 l 2x50
 583 1303 741 1046 919 733 c 1
 1097 930 1156 1018 1201 1135 c 1
 1174 1147 1073 1180 1043 1180 c 0
 1010 1180 972 1169 922 1141 c 9
 1132 1340 l 17x08
 1301 1340 1366 1257 1482 1257 c 0
 1519 1257 1560 1266 1612 1287 c 9
 1408 1081 l 17
 1386 1081 l 0
 1328 1081 1326 1082 1285 1098 c 1
 1174 925 1081 835 947 689 c 1x20
EndSplineSet
Validated: 1
EndChar

StartChar: y
Encoding: 121 121 195
Width: 1731
VWidth: 1631
Flags: W
HStem: 1060 176<1384.99 1471> 1133 163<108.5 345.5>
VStem: 737 95<251.732 555.219>
LayerCount: 2
Fore
SplineSet
1300 1088 m 1xa0
 1234 946 1147 875 902 680 c 1
 922 674 939 672 954 672 c 0
 985 672 1008 684 1041 709 c 1
 1016 662 947 606 832 540 c 1
 832 536 l 2
 832 457 861 304 912 101 c 1
 932 96 954 92 977 92 c 0
 1014 92 1055 101 1107 123 c 9
 903 -84 l 17
 691 -84 637 16 538 16 c 0
 505 16 467 4 417 -24 c 9
 627 176 l 17
 654 176 678 173 700 170 c 1
 699 177 699 186 699 195 c 0
 699 280 737 420 737 504 c 0
 737 513 738 522 737 529 c 1
 565 608 389 1133 128 1133 c 0
 89 1133 28 1108 -50 1055 c 1
 105 1191 l 1
 196 1260 263 1296 306 1296 c 0x60
 385 1296 457 1247 538 1161 c 0
 585 1112 789 740 871 692 c 1
 1053 875 1108 923 1194 1136 c 1
 1165 1149 1138 1160 1106 1160 c 0
 1073 1160 1035 1148 985 1120 c 9
 1195 1320 l 17
 1364 1320 1429 1236 1545 1236 c 0
 1582 1236 1623 1245 1675 1267 c 9
 1471 1060 l 17
 1398 1060 1344 1073 1300 1088 c 1xa0
EndSplineSet
Validated: 1
EndChar

StartChar: z
Encoding: 122 122 196
Width: 1723
VWidth: 1634
Flags: W
HStem: -43 161<756.477 1281.75> 43 159<283.332 596.29> 1036 190<768.168 1195.98> 1143 159<280.859 507.621>
LayerCount: 2
Fore
SplineSet
1631 227 m 1x80
 1391 29 1284 -43 955 -43 c 0x80
 734 -43 449 43 228 43 c 2
 226 43 l 2x40
 169 43 109 15 46 -43 c 1
 258 415 559 696 1084 1103 c 1
 959 1054 l 1
 918 1042 876 1036 834 1036 c 0xa0
 645 1036 445 1143 271 1143 c 0
 177 1143 88 1071 33 1051 c 1
 216 1215 l 1
 292 1273 371 1302 454 1302 c 2
 457 1302 l 2x10
 668 1302 946 1226 1168 1226 c 0
 1318 1226 1464 1270 1555 1323 c 1
 1095 950 517 671 261 140 c 1
 308 182 359 202 416 202 c 0x60
 626 202 910 118 1123 118 c 0
 1322 118 1492 154 1631 227 c 1x80
EndSplineSet
Validated: 1
EndChar

StartChar: dottedcircle
Encoding: 9676 9676 197
Width: 1260
VWidth: 2273
Flags: W
HStem: 36 189<549.834 710.166> 96 189<327.082 487.166 772.834 932.918> 258 190<164.788 324.166 935.834 1095.21> 481 190<104.788 264.166 995.834 1155.21> 704 190<164.788 324.166 935.834 1095.21> 867 189<327.082 487.166 772.834 932.918> 927 191<549.834 710.166>
VStem: 90 189<495.834 656.166> 150 189<273.082 433.166 718.834 878.918> 312 190<110.788 270.166 881.834 1041.21> 535 190<50.7877 210.166 941.834 1102.62> 758 190<110.788 270.166 881.834 1041.21> 921 189<273.082 433.166 718.834 878.918> 981 189<495.834 656.166>
LayerCount: 2
Fore
SplineSet
1110 799 m 0x1828
 1110 746 1068 704 1016 704 c 0
 963 704 921 746 921 799 c 0
 921 851 963 894 1016 894 c 0
 1068 894 1110 851 1110 799 c 0x1828
948 190 m 0x5030
 948 138 905 96 853 96 c 0
 800 96 758 138 758 190 c 0
 758 243 800 285 853 285 c 0
 905 285 948 243 948 190 c 0x5030
339 353 m 0x30a0
 339 301 297 258 244 258 c 0
 192 258 150 301 150 353 c 0
 150 406 192 448 244 448 c 0
 297 448 339 406 339 353 c 0x30a0
502 962 m 0x1460
 502 909 460 867 407 867 c 0
 355 867 312 909 312 962 c 0
 312 1014 355 1056 407 1056 c 0
 460 1056 502 1014 502 962 c 0x1460
339 799 m 0x18a0
 339 746 297 704 244 704 c 0
 192 704 150 746 150 799 c 0
 150 851 192 894 244 894 c 0
 297 894 339 851 339 799 c 0x18a0
502 190 m 0x5060
 502 138 460 96 407 96 c 0
 355 96 312 138 312 190 c 0
 312 243 355 285 407 285 c 0
 460 285 502 243 502 190 c 0x5060
1110 353 m 0x3028
 1110 301 1068 258 1016 258 c 0
 963 258 921 301 921 353 c 0
 921 406 963 448 1016 448 c 0
 1068 448 1110 406 1110 353 c 0x3028
948 962 m 0x1430
 948 909 905 867 853 867 c 0
 800 867 758 909 758 962 c 0
 758 1014 800 1056 853 1056 c 0
 905 1056 948 1014 948 962 c 0x1430
725 130 m 0
 725 78 683 36 630 36 c 0
 577 36 535 78 535 130 c 0
 535 183 577 225 630 225 c 0x9020
 683 225 725 183 725 130 c 0
1170 576 m 0x1024
 1170 523 1128 481 1076 481 c 0
 1023 481 981 523 981 576 c 0
 981 629 1023 671 1076 671 c 0
 1128 671 1170 629 1170 576 c 0x1024
725 1022 m 0
 725 969 683 927 630 927 c 0
 577 927 535 969 535 1022 c 0
 535 1074 576 1118 630 1118 c 0x1220
 684 1118 725 1074 725 1022 c 0
279 576 m 0x1120
 279 523 237 481 184 481 c 0
 132 481 90 523 90 576 c 0
 90 629 132 671 184 671 c 0
 237 671 279 629 279 576 c 0x1120
EndSplineSet
Validated: 1
EndChar

StartChar: hatafqamatsmidmeteg
Encoding: 65540 -1 198
Width: 0
VWidth: 2273
Flags: W
HStem: -550 198<230.822 395.441> -336 196<228.927 394.236> -306 166<-412 -273 -107 15>
VStem: -273 166<-557 -306> 51 130<-546 -147> 214 198<-532.65 -369.086 -318.164 -157.836>
AnchorPoint: "N-4" -70 0 mark 0
LayerCount: 2
Fore
SplineSet
181 -546 m 1x9c
 51 -546 l 1
 51 -147 l 1
 181 -147 l 1
 181 -546 l 1x9c
214 -451 m 0
 214 -396 258 -352 313 -352 c 0
 369 -352 412 -397 412 -451 c 0
 412 -504 369 -550 313 -550 c 0
 258 -550 214 -505 214 -451 c 0
214 -238 m 0
 214 -183 256 -140 311 -140 c 0
 365 -140 410 -183 410 -238 c 0
 410 -293 365 -336 311 -336 c 0xdc
 256 -336 214 -293 214 -238 c 0
-412 -140 m 1xbc
 15 -140 l 1
 15 -306 l 1
 -107 -306 l 1
 -107 -557 l 1
 -273 -557 l 1
 -273 -306 l 1
 -412 -306 l 1
 -412 -140 l 1xbc
EndSplineSet
Validated: 1
Ligature2: "'ccmp' Hebrew HatafMeteg subtable" hatafqamats zerojoin meteg
Ligature2: "'ccmp' Hebrew HatafMeteg subtable" hatafqamats .null meteg
LCarets2: 2 0 0 
Ligature2: "'ccmp' Hebrew HatafMeteg subtable" hatafqamats CGJ meteg
EndChar

StartChar: Euro
Encoding: 8364 8364 204
Width: 1282
Flags: W
HStem: -63 197<671.557 1052.47> 452 161<106.564 242 480 924.828> 687 161<107.197 242 483 1009.4> 1155 197<666.992 1066.81>
VStem: 261 219<342.468 452 848 955.173>
LayerCount: 2
Fore
SplineSet
815 -63 m 0
 587 -63 329 97 261 452 c 1
 90 452 l 1
 82 467 78 482 78 498 c 0
 78 536 103 574 150 613 c 1
 242 613 l 1
 242 639 l 2
 242 656 242 672 242 687 c 1
 90 687 l 1
 83 702 80 717 80 732 c 0
 80 770 103 809 150 848 c 1
 265 848 l 1
 284 938 384 1352 862 1352 c 0
 986 1352 1091 1324 1175 1270 c 2
 1192 1259 l 1
 1199 1239 1202 1222 1202 1206 c 0
 1202 1150 1163 1115 1119 1082 c 1
 1095 1096 l 2
 1008 1145 924 1155 842 1155 c 0
 662 1155 535 1043 483 848 c 1
 1026 848 l 1
 1042 835 1049 821 1049 806 c 0
 1049 770 1010 729 964 687 c 1
 460 687 l 1
 460 671 459 656 459 641 c 0
 459 631 459 622 459 613 c 1
 937 613 l 1
 952 594 959 577 959 561 c 0
 959 519 914 485 872 452 c 1
 480 452 l 1
 533 250 677 134 817 134 c 0
 904 134 977 140 1064 184 c 2
 1088 197 l 1
 1138 171 1163 126 1163 62 c 0
 1163 49 1162 34 1160 19 c 1
 1141 8 l 2
 1046 -46 939 -63 815 -63 c 0
EndSplineSet
Validated: 1
EndChar
